<svg width="375" height="920" viewBox="0 0 375 920" fill="none" xmlns="http://www.w3.org/2000/svg">
<defs>
<linearGradient id="paint0_linear" x1="3.49999" y1="-91" x2="396" y2="502.5" gradientUnits="userSpaceOnUse">
<stop stop-color="#4F91F5"/>
<stop offset="1" stop-color="#5445F9"/>
</linearGradient>
<clipPath id="clip0">
<rect width="375" height="920" fill="white"/>
</clipPath>
</defs>
<g clip-path="url(#clip0)">
<path d="M-25 574.5V16V-91L393 -83.5C395 41.5 397.8 293.9 393 347.5C388.2 401.1 341.695 428.39 275.5 422C42.5 399.507 27.5 493 -25 574.5Z" fill="url(#paint0_linear)"/>
<path d="M-66.9999 410.5C-69.9999 385.5 -41.9708 313.728 91.0001 328C282 348.5 362 252 375 109C388 -34 418.005 25.6087 416 -41.5C414.609 -88.0831 326 -182 326 -182" stroke="white" stroke-opacity="0.13"/>
<path d="M-105.79 342.5C-108.79 317.5 -80.7611 245.728 52.2099 260C243.21 280.5 323.21 184 336.21 41C349.21 -102 379.214 -42.3913 377.21 -109.5C375.818 -156.083 287.21 -250 287.21 -250" stroke="white" stroke-opacity="0.13"/>
<path d="M-154.79 259.5C-157.79 234.5 -129.761 162.728 3.2099 177C194.21 197.5 274.21 101 287.21 -42C300.21 -185 330.214 -125.391 328.21 -192.5C326.818 -239.083 238.21 -333 238.21 -333" stroke="white" stroke-opacity="0.13"/>
<path d="M-203.79 176.5C-206.79 151.5 -178.761 79.7282 -45.7901 94C145.21 114.5 225.21 18 238.21 -125C251.21 -268 281.214 -208.391 279.21 -275.5C277.818 -322.083 189.21 -416 189.21 -416" stroke="white" stroke-opacity="0.13"/>
</g>
</svg>
