<svg width="287" height="200" viewBox="0 0 287 200" fill="none" xmlns="http://www.w3.org/2000/svg">
<defs>
<linearGradient id="paint0_linear" x1="223.877" y1="39.2891" x2="210.277" y2="55.496" gradientUnits="userSpaceOnUse">
<stop stop-color="#00AEFF"/>
<stop offset="1" stop-color="#0076FF"/>
</linearGradient>
<clipPath id="clip0">
<rect width="287" height="200" fill="white"/>
</clipPath>
</defs>
<g clip-path="url(#clip0)">
<path d="M240.174 36.763C238.085 30.8174 250.245 28.8714 255.633 32.1388C258.474 33.8609 250.814 35.5912 253.357 37.7293C258.494 42.0516 278.761 35.5496 277.511 42.1462C276.879 45.487 270.074 44.701 269.712 48.0817C269.084 53.9642 284.733 45.6481 286.139 51.3946C287.247 55.9185 288.03 56.2137 283.586 57.6059C272.128 61.1949 267.196 58.5032 258.463 58.5032C245.23 58.5032 240.652 58.7513 228.164 58.5032C223.88 58.4181 216.85 60.1186 215.604 56.0186C214.493 52.3653 219.159 49.9259 223.058 47.1845C230.984 41.6116 252.62 50.5628 246.246 42.1462C243.946 39.1069 241.436 40.36 240.174 36.763Z" fill="white" fill-opacity="0.3"/>
<path d="M93.7366 6.19955C91.6482 0.254011 103.808 -1.69201 109.196 1.57534C112.036 3.29742 104.377 5.0278 106.919 7.1659C112.056 11.4881 132.323 4.98615 131.075 11.5828C130.442 14.9236 123.637 14.1375 123.276 17.5183C122.647 23.4008 138.295 15.0847 139.702 20.8312C140.809 25.3551 141.593 25.6503 137.148 27.0425C125.691 30.6315 120.759 27.9397 112.026 27.9397C98.7923 27.9397 94.2152 28.1879 81.7277 27.9397C77.443 27.8547 70.4136 29.5552 69.1666 25.4552C68.0555 21.8019 72.7218 19.3625 76.6204 16.621C84.5466 11.0481 106.183 19.9994 99.8101 11.5828C97.5087 8.54349 95.0001 9.79657 93.7366 6.19955Z" fill="white" fill-opacity="0.19"/>
<path d="M16.9375 49.2449C15.5076 45.1739 23.8335 43.8415 27.5231 46.0787C29.4676 47.2578 24.2235 48.4426 25.9637 49.9066C29.4814 52.8661 43.3584 48.4141 42.5036 52.9309C42.0706 55.2184 37.4109 54.6802 37.1636 56.995C36.7328 61.0229 47.4475 55.3288 48.4106 59.2635C49.1687 62.361 49.7053 62.5632 46.6621 63.5164C38.8175 65.9739 35.4401 64.1308 29.4606 64.1308C20.3992 64.1308 17.2652 64.3007 8.71489 64.1308C5.78107 64.0726 0.967917 65.2369 0.114093 62.4296C-0.64672 59.9281 2.54837 58.2578 5.21778 56.3807C10.645 52.5648 25.4599 58.6939 21.0962 52.9309C19.5203 50.8499 17.8027 51.7079 16.9375 49.2449Z" fill="white" fill-opacity="0.06"/>
<path d="M231.254 168.945C240.418 174.015 227.436 191.044 219.8 198.924H205.906C196.035 194.415 177.828 184.642 183.97 181.62C191.648 177.841 179.705 173.576 176.293 163.948C172.88 154.321 186.408 154.565 196.157 154.565C205.906 154.565 198.229 141.89 208.466 138.966C218.701 136.041 215.168 147.375 215.168 154.565C215.168 161.755 219.8 162.608 231.254 168.945Z" fill="#66ADFF"/>
<path d="M205.262 155.889C207.848 160.198 209.627 184.154 213.202 198.453H209.18C209.79 196.503 197.359 190.165 193.338 187.607C189.316 185.048 193.825 180.661 195.409 179.928C196.994 179.197 182.126 172.373 184.441 163.598C186.159 157.089 195.149 171.279 197.603 164.817C199.16 160.716 203.435 152.842 205.262 155.889Z" fill="white" fill-opacity="0.13"/>
<path d="M213.919 198.79C213.971 198.933 214.128 199.006 214.27 198.955C214.413 198.903 214.486 198.746 214.435 198.604L213.919 198.79ZM211.821 190.455C211.779 190.31 211.627 190.226 211.481 190.268C211.336 190.31 211.252 190.462 211.294 190.607L211.821 190.455ZM210.502 146.939C210.589 146.814 210.558 146.643 210.434 146.557C210.31 146.47 210.139 146.501 210.052 146.625L210.502 146.939ZM208.45 160.17L208.718 160.228L208.45 160.17ZM210.012 185.907C210.049 186.054 210.199 186.142 210.345 186.105C210.492 186.067 210.58 185.917 210.543 185.771L210.012 185.907ZM210.057 186.002C210.147 186.124 210.319 186.149 210.44 186.059C210.562 185.969 210.587 185.797 210.497 185.676L210.057 186.002ZM187.875 165.558C187.746 165.479 187.577 165.52 187.498 165.649C187.419 165.778 187.459 165.947 187.588 166.026L187.875 165.558ZM210.543 185.771C210.505 185.624 210.356 185.536 210.209 185.574C210.062 185.611 209.974 185.761 210.012 185.907L210.543 185.771ZM211.294 190.607C211.336 190.753 211.488 190.837 211.633 190.795C211.779 190.753 211.863 190.601 211.821 190.455L211.294 190.607ZM211.333 190.373C211.246 190.497 211.276 190.668 211.399 190.755C211.523 190.843 211.694 190.813 211.781 190.689L211.333 190.373ZM226.471 175.672C226.61 175.612 226.675 175.451 226.615 175.312C226.556 175.172 226.395 175.108 226.255 175.168L226.471 175.672ZM214.435 198.604C213.688 196.539 212.765 193.725 211.821 190.455L211.294 190.607C212.241 193.887 213.168 196.712 213.919 198.79L214.435 198.604ZM210.052 146.625C209.333 147.658 208.951 148.574 208.763 149.487C208.577 150.395 208.587 151.286 208.633 152.255C208.725 154.19 208.966 156.496 208.182 160.112L208.718 160.228C209.519 156.532 209.272 154.155 209.18 152.229C209.135 151.267 209.129 150.434 209.301 149.597C209.471 148.765 209.82 147.917 210.502 146.939L210.052 146.625ZM208.182 160.112C206.387 168.396 207.724 177.009 210.012 185.907L210.543 185.771C208.261 176.894 206.951 168.384 208.718 160.228L208.182 160.112ZM210.497 185.676C205.276 178.639 198.628 172.157 187.875 165.558L187.588 166.026C198.284 172.589 204.879 179.024 210.057 186.002L210.497 185.676ZM210.012 185.907C210.434 187.55 210.866 189.124 211.294 190.607L211.821 190.455C211.394 188.977 210.963 187.408 210.543 185.771L210.012 185.907ZM211.781 190.689C213.249 188.605 215.749 185.348 218.476 182.359C219.839 180.864 221.256 179.44 222.627 178.264C224.001 177.085 225.315 176.167 226.471 175.672L226.255 175.168C225.023 175.695 223.66 176.655 222.27 177.848C220.877 179.043 219.443 180.484 218.071 181.989C215.325 184.998 212.811 188.274 211.333 190.373L211.781 190.689Z" fill="#FBFBFB"/>
<path d="M199.15 163.17C188.181 169.239 203.721 189.622 212.863 199.057H229.492C241.31 193.658 263.103 181.96 255.751 178.341C246.56 173.82 260.857 168.714 264.941 157.189C269.025 145.665 252.833 145.957 241.164 145.957C229.492 145.957 238.683 130.786 226.431 127.285C214.176 123.784 218.407 137.35 218.407 145.957C218.407 154.564 212.863 155.585 199.15 163.17Z" fill="#0076FF"/>
<path d="M230.264 147.542C227.17 152.7 225.04 181.376 220.76 198.492H225.574C224.846 196.157 239.725 188.571 244.539 185.508C249.351 182.444 236.914 181.986 236.914 178.068C236.914 171.963 257.96 167.273 255.188 156.77C253.132 148.979 242.37 165.965 239.433 158.229C237.568 153.32 232.453 143.895 230.264 147.542Z" fill="white" fill-opacity="0.13"/>
<path d="M219.285 198.673C219.223 198.843 219.311 199.031 219.482 199.093C219.652 199.154 219.84 199.066 219.902 198.896L219.285 198.673ZM223.044 189.1C223.094 188.926 222.994 188.744 222.82 188.694C222.646 188.644 222.464 188.744 222.413 188.918L223.044 189.1ZM224.531 136.453C224.427 136.304 224.222 136.267 224.074 136.371C223.925 136.475 223.889 136.679 223.992 136.828L224.531 136.453ZM226.448 152.666L226.769 152.597L226.448 152.666ZM223.944 183.311C223.898 183.486 224.004 183.665 224.18 183.71C224.355 183.756 224.534 183.65 224.579 183.474L223.944 183.311ZM223.998 183.197C223.89 183.343 223.92 183.548 224.066 183.656C224.211 183.764 224.417 183.734 224.525 183.588L223.998 183.197ZM251.42 159.676C251.574 159.581 251.623 159.379 251.528 159.225C251.433 159.07 251.231 159.022 251.077 159.117L251.42 159.676ZM224.579 183.474C224.624 183.299 224.519 183.12 224.343 183.075C224.168 183.03 223.989 183.135 223.944 183.311L224.579 183.474ZM222.413 188.918C222.363 189.092 222.463 189.274 222.638 189.325C222.812 189.375 222.994 189.275 223.044 189.1L222.413 188.918ZM222.46 189.198C222.565 189.346 222.769 189.382 222.917 189.278C223.066 189.173 223.101 188.969 222.997 188.82L222.46 189.198ZM205.135 170.619C204.968 170.547 204.775 170.625 204.704 170.791C204.632 170.958 204.71 171.151 204.876 171.222L205.135 170.619ZM219.902 198.896C220.801 196.409 221.911 193.027 223.044 189.1L222.413 188.918C221.284 192.833 220.178 196.201 219.285 198.673L219.902 198.896ZM223.992 136.828C224.808 137.999 225.226 139.014 225.431 140.01C225.636 141.012 225.629 142.01 225.574 143.161C225.465 145.466 225.169 148.311 226.128 152.736L226.769 152.597C225.831 148.269 226.12 145.508 226.23 143.192C226.285 142.032 226.296 140.965 226.073 139.878C225.849 138.786 225.392 137.689 224.531 136.453L223.992 136.828ZM226.128 152.736C228.243 162.499 226.674 172.686 223.944 183.311L224.579 183.474C227.317 172.824 228.918 162.514 226.769 152.597L226.128 152.736ZM224.525 183.588C230.724 175.236 238.618 167.532 251.42 159.676L251.077 159.117C238.206 167.015 230.249 174.775 223.998 183.197L224.525 183.588ZM223.944 183.311C223.441 185.27 222.925 187.148 222.413 188.918L223.044 189.1C223.557 187.325 224.075 185.44 224.579 183.474L223.944 183.311ZM222.997 188.82C221.228 186.307 218.218 182.386 214.932 178.785C213.289 176.984 211.573 175.258 209.905 173.827C208.241 172.399 206.609 171.251 205.135 170.619L204.876 171.222C206.261 171.815 207.833 172.914 209.478 174.325C211.118 175.733 212.815 177.438 214.447 179.227C217.711 182.805 220.704 186.703 222.46 189.198L222.997 188.82Z" fill="#FBFBFB"/>
<path fill-rule="evenodd" clip-rule="evenodd" d="M68.8048 131.189C68.8048 131.189 60.3012 127.701 59.102 130.426C57.9028 133.152 57.3577 156.5 57.3577 156.5C58.4115 157.99 61.108 157.223 62.5906 153.647C63.4949 151.467 63.5947 150.895 63.6876 150.362C63.7851 149.803 63.8751 149.286 64.8801 146.997C65.3827 145.853 66.0174 144.596 66.5801 143.481C67.2369 142.181 67.7957 141.074 67.9326 140.565L68.8048 131.189ZM176.299 189.842C176.299 189.842 175.209 199 176.735 199.562C178.261 200.125 204.644 197.038 200.283 191.386C199.2 191.231 197.806 191.107 196.299 190.972C191.433 190.533 185.385 189.99 184.803 188.006L176.299 189.842Z" fill="#31323B"/>
<path d="M57.5757 156.482C57.7573 147.942 58.3606 130.622 59.32 129.663" stroke="#C4C8CA" stroke-width="0.654123"/>
<path fill-rule="evenodd" clip-rule="evenodd" d="M143.58 121.931C137.465 133.813 131.701 144.214 129.202 146.579C124.318 151.201 86.248 144.58 67.8235 140.692L68.6957 131.098C76.1778 132.876 85.2413 132.075 93.8801 131.312C104.752 130.351 114.952 129.45 120.48 133.823C120.48 119.142 122.399 88.2747 130.074 82.2567C135.307 84.9458 148.52 90.1716 159.51 89.5611C159.476 89.6333 159.441 89.7059 159.407 89.7787L177.498 140.692L184.911 187.897C182.949 188.66 178.436 190.034 176.081 189.86L170.978 171.217C167.961 167.147 162.125 156.282 162.91 145.38C157.701 141.643 146.449 131.103 143.58 121.931Z" fill="#4124F7"/>
<path d="M68.6957 131.098V134.678C93.1163 132.951 115.356 139.802 121.898 138.494C128.439 137.185 128.439 106.987 138.251 85.7203C134.819 84.4965 131.94 83.2155 130.074 82.2567C122.399 88.2747 120.48 119.142 120.48 133.823C110.56 125.974 85.5939 135.114 68.6957 131.098Z" fill="black" fill-opacity="0.11"/>
<path d="M177.498 140.692L159.401 89.7615L143.484 121.613C146.187 130.858 157.641 141.6 162.91 145.38C162.125 156.282 167.961 167.147 170.978 171.217L176.081 189.86C178.436 190.034 182.949 188.66 184.912 187.897L177.498 140.692Z" fill="black" fill-opacity="0.22"/>
<path d="M176.081 189.86C178.436 190.034 178.479 189.842 180.442 189.079C180.442 189.079 176.429 177.117 173.573 169.128C170.11 159.44 165.942 143.072 165.942 143.072C165.942 143.072 159.677 136.033 156.021 131.516C151.744 126.233 145.991 116.581 145.991 116.581L143.484 121.613C146.187 130.858 157.641 141.6 162.91 145.38C162.125 156.282 167.961 167.147 170.978 171.217L176.081 189.86Z" fill="black" fill-opacity="0.13"/>
<path fill-rule="evenodd" clip-rule="evenodd" d="M170.412 37.4493C170.702 35.9231 171.554 32.5216 171.903 31.9983C173.886 32.9754 177.061 33.0554 180.442 28.9457H182.077C182.041 26.9834 182.23 22.579 183.276 20.6602C185.457 9.43087 164.634 4.1979 164.198 22.7316V26.8741L159.946 32.9793L157.983 36.3589C158.601 38.6122 161.516 42.7257 168.231 41.1558L170.412 37.4493ZM129.311 84.6552L114.375 59.1444C121.244 57.4001 126.699 54.1683 132.473 50.172C127.763 45.2618 126.876 38.8448 127.022 36.2501C119.39 39.7388 101.729 50.172 99.8755 56.3099C100.137 65.1187 118.082 85.1277 127.022 94.031L129.311 100.664L132.8 101.972L136.506 103.062L140.54 97.611L137.924 92.705L132.364 89.6525L129.311 84.6552ZM191.017 84.3281C182.382 79.3568 177.825 67.5754 176.626 62.306C182.186 60.6707 186.656 57.073 187.855 54.4565C189.064 56.0691 190.067 59.304 191.125 62.7192V62.7194C192.128 65.9532 193.18 69.3487 194.505 71.6817C201.156 69.4837 211.767 67.7206 217.072 67.866C222.377 68.0115 230.155 65.3586 230.155 65.3586C230.467 65.0622 230.794 64.7452 231.13 64.4221C233.299 62.3276 235.732 59.9806 235.279 61.4162L234.843 64.4864C238.55 63.1605 245.381 62.8511 244.873 64.4864C244.227 70.3005 238.999 70.1125 234.806 69.9621C234.047 69.9346 233.321 69.9086 232.662 69.9198C224.115 74.455 200.174 82.0023 191.017 84.3281Z" fill="#FC82FE"/>
<path d="M161.908 34.8152C161.298 34.6408 160.527 33.6524 159.946 32.9619L164.198 26.9658L169.322 24.3493C169.322 24.3493 165.991 26.6104 164.743 28.383C163.052 30.7828 161.908 34.8152 161.908 34.8152Z" fill="black" fill-opacity="0.12"/>
<path d="M180.333 61.0892C179.548 61.8741 177.971 61.9613 176.626 62.3974C179.679 75.6979 189.163 84.2015 191.126 84.2015C178.915 67.8484 181.118 60.3042 180.333 61.0892Z" fill="black" fill-opacity="0.1"/>
<path d="M193.306 72.3182C191.501 69.8755 188.146 60.9075 186.983 56.2922C186.916 56.0306 187.428 55.5655 187.964 54.8749C189.272 55.311 191.344 64.9048 194.505 71.6641C209.659 66.9762 215.982 68.9386 224.377 66.9762C222.197 68.2845 220.016 69.1566 215.001 70.0288C213.283 70.3277 205.516 69.171 200.72 71.6641C198.648 72.4636 195.159 74.8257 193.306 72.3182Z" fill="black" fill-opacity="0.06"/>
<path d="M112.522 57.8185C116.817 55.5513 121.789 54.0028 131.055 48.5518L132.363 50.078C127.458 54.2208 119.063 58.0365 114.484 59.2358L128.221 82.8932L124.95 78.9685C121.287 75.2182 108.597 59.8899 112.522 57.8185Z" fill="black" fill-opacity="0.09"/>
<path d="M169.431 24.3669L164.198 26.9658C162.017 3.1993 184.475 9.43113 183.385 19.243C182.077 20.6602 177.156 16.2865 174.773 17.7167C173.137 18.6979 173.21 20.8783 172.81 22.4046H171.72C170.194 19.243 168.122 22.4046 169.431 24.3669Z" fill="#242629"/>
<path d="M164.525 19.5523C166.051 20.0974 168.21 15.4968 170.739 15.4096C173.268 15.3223 177.825 13.5562 178.697 11.8119" stroke="white" stroke-opacity="0.07" stroke-width="0.654123"/>
<path d="M165.288 16.3907C166.814 16.9358 168.753 12.357 171.284 12.357C173.246 12.357 174.337 12.1389 176.517 10.8307" stroke="white" stroke-opacity="0.07" stroke-width="0.654123"/>
<path d="M164.307 23.15C165.833 23.6951 168.646 18.3313 171.175 18.2441C173.704 18.1569 179.679 14.8644 180.551 13.1201" stroke="white" stroke-opacity="0.07" stroke-width="0.654123"/>
<path d="M137.488 48.3337L132.582 50.2047C128.046 46.6288 126.913 39.121 126.913 35.814C137.64 28.4879 153.259 30.7265 159.728 32.7615C164.263 38.1689 168.885 38.067 170.63 37.3403C180.398 42.3989 186.256 51.0043 187.964 54.6746C185.173 59.297 179.315 61.8335 176.735 62.524L174.336 58.3813L159.51 89.6701C147.125 90.3678 134.908 85.0187 130.074 82.2567L137.488 48.3337Z" fill="#FBCB92"/>
<path d="M174.664 57.9276L159.51 89.3254C158.42 90.0886 153.52 89.6889 150.788 89.3254C158.201 76.461 164.961 77.1151 174.664 57.9276Z" fill="#0A0A0A" fill-opacity="0.05"/>
<path fill-rule="evenodd" clip-rule="evenodd" d="M136.506 91.8329L196.468 23.15L207.261 11.3758L210.64 13.8833L138.905 94.6674C138.905 94.6674 138.43 93.5227 137.924 92.9231C137.493 92.4142 136.506 91.8329 136.506 91.8329ZM119.717 110.584L128.984 99.4643C129.3 100.476 129.983 100.718 130.714 100.976C131.243 101.163 131.797 101.359 132.255 101.863L96.714 141.71L94.7516 139.148L119.717 110.584Z" fill="#737373"/>
<path d="M228.302 38.1948C219.251 31.0475 207.915 16.8268 207.915 16.8268C207.915 16.8268 200.954 25.0152 196.25 30.3454C191.369 35.8753 183.494 44.191 183.494 44.191C183.494 44.191 194.271 55.8721 202.246 63.0515C210.515 70.4963 224.704 81.585 224.704 81.585C224.704 81.585 234.287 72.0108 239.204 65.559C243.602 59.7855 247.598 50.2961 247.598 50.2961C247.598 50.2961 235.283 43.7071 228.302 38.1948Z" fill="white"/>
<path fill-rule="evenodd" clip-rule="evenodd" d="M200.801 193.026C200.873 192.86 200.798 192.668 200.632 192.596C200.467 192.522 200.274 192.598 200.202 192.764C199.677 193.963 198.431 194.957 196.667 195.775C194.913 196.588 192.7 197.199 190.328 197.657C185.584 198.575 180.263 198.874 176.832 199L176.856 199.654C180.293 199.528 185.656 199.227 190.452 198.3C192.849 197.836 195.12 197.212 196.942 196.368C198.757 195.529 200.181 194.443 200.801 193.026ZM200.801 193.026L200.202 192.764L200.801 193.026ZM176.832 199C176.652 199.006 176.51 199.159 176.517 199.34C176.524 199.519 176.676 199.661 176.856 199.654L176.832 199Z" fill="#E8E8E8"/>
<path d="M169.649 30.5634C169.213 31.4356 167.904 34.0521 164.634 36.6686C167.468 38.1948 170.374 37.5813 170.412 37.4317C170.521 36.9956 171.066 34.0521 171.938 31.8717C171.284 32.0897 169.867 31.1085 169.649 30.5634Z" fill="black" fill-opacity="0.12"/>
<path d="M137.815 47.5706L130.183 82.239L135.198 84.8555C134.108 82.4571 136.434 58.8361 137.815 47.5706Z" fill="black" fill-opacity="0.06"/>
<path d="M127.785 41.6835C127.087 39.9391 126.985 36.9592 127.022 35.6873C136.615 28.8845 152.314 30.5634 159.946 32.8528L160.6 34.052L158.42 33.725L150.352 33.2889C133.955 33.2889 129.02 39.1396 127.785 41.6835Z" fill="black" fill-opacity="0.04"/>
<path d="M209.332 13.1201L138.251 93.3591L139.014 94.4493L210.64 14.1013L209.332 13.1201Z" fill="black" fill-opacity="0.12"/>
<path d="M95.7328 140.674L131.164 101.1L132.255 101.754L96.605 141.764L95.7328 140.674Z" fill="black" fill-opacity="0.16"/>
<path d="M211.622 166.621C212.525 166.621 213.257 165.889 213.257 164.986C213.257 164.082 212.525 163.35 211.622 163.35C210.718 163.35 209.986 164.082 209.986 164.986C209.986 165.889 210.718 166.621 211.622 166.621Z" fill="white" fill-opacity="0.2"/>
<path d="M218.599 170.764C219.141 170.764 219.58 170.324 219.58 169.783C219.58 169.241 219.141 168.801 218.599 168.801C218.057 168.801 217.618 169.241 217.618 169.783C217.618 170.324 218.057 170.764 218.599 170.764Z" fill="white" fill-opacity="0.2"/>
<path d="M221.651 159.207C222.193 159.207 222.633 158.768 222.633 158.226C222.633 157.684 222.193 157.245 221.651 157.245C221.109 157.245 220.67 157.684 220.67 158.226C220.67 158.768 221.109 159.207 221.651 159.207Z" fill="white" fill-opacity="0.2"/>
<path d="M229.501 142.636C230.043 142.636 230.482 142.197 230.482 141.655C230.482 141.113 230.043 140.674 229.501 140.674C228.959 140.674 228.52 141.113 228.52 141.655C228.52 142.197 228.959 142.636 229.501 142.636Z" fill="white" fill-opacity="0.2"/>
<path d="M242.147 154.193C242.689 154.193 243.128 153.753 243.128 153.211C243.128 152.669 242.689 152.23 242.147 152.23C241.605 152.23 241.166 152.669 241.166 153.211C241.166 153.753 241.605 154.193 242.147 154.193Z" fill="white" fill-opacity="0.2"/>
<path d="M251.305 152.23C251.847 152.23 252.286 151.791 252.286 151.249C252.286 150.707 251.847 150.268 251.305 150.268C250.763 150.268 250.324 150.707 250.324 151.249C250.324 151.791 250.763 152.23 251.305 152.23Z" fill="white" fill-opacity="0.2"/>
<path d="M260.027 158.117C260.568 158.117 261.008 157.678 261.008 157.136C261.008 156.594 260.568 156.155 260.027 156.155C259.485 156.155 259.045 156.594 259.045 157.136C259.045 157.678 259.485 158.117 260.027 158.117Z" fill="white" fill-opacity="0.2"/>
<path d="M207.261 180.576C207.803 180.576 208.242 180.136 208.242 179.594C208.242 179.052 207.803 178.613 207.261 178.613C206.719 178.613 206.28 179.052 206.28 179.594C206.28 180.136 206.719 180.576 207.261 180.576Z" fill="white" fill-opacity="0.2"/>
<path d="M216.636 187.553C217.178 187.553 217.618 187.114 217.618 186.572C217.618 186.03 217.178 185.59 216.636 185.59C216.095 185.59 215.655 186.03 215.655 186.572C215.655 187.114 216.095 187.553 216.636 187.553Z" fill="white" fill-opacity="0.2"/>
<path d="M250.215 178.831C250.757 178.831 251.196 178.392 251.196 177.85C251.196 177.308 250.757 176.869 250.215 176.869C249.673 176.869 249.234 177.308 249.234 177.85C249.234 178.392 249.673 178.831 250.215 178.831Z" fill="white" fill-opacity="0.2"/>
<path d="M210.531 191.914C211.073 191.914 211.512 191.474 211.512 190.932C211.512 190.391 211.073 189.951 210.531 189.951C209.989 189.951 209.55 190.391 209.55 190.932C209.55 191.474 209.989 191.914 210.531 191.914Z" fill="white" fill-opacity="0.2"/>
<path d="M220.883 62.1352L216.723 50.7358C216.333 49.655 215.105 48.6248 213.973 48.428L202.073 46.3519C200.941 46.1552 200.368 46.8879 200.734 47.948L204.894 59.3475C205.285 60.4282 206.512 61.4585 207.644 61.6552L219.544 63.7313C220.701 63.9487 221.274 63.216 220.883 62.1352Z" fill="#5B4CF0"/>
<path d="M225.18 54.1921C221.43 58.6613 214.722 59.2254 210.277 55.496C205.833 51.7665 205.244 45.0375 208.974 40.5929C212.703 36.1483 219.432 35.5596 223.877 39.2891C228.321 43.0186 228.931 49.723 225.18 54.1921Z" fill="url(#paint0_linear)"/>
<path d="M218.865 49.1012C218.005 48.3801 217.45 48.7927 217.12 49.1856C216.852 49.5048 216.613 49.8898 216.394 50.2503C216.175 50.6107 215.936 50.9957 215.648 51.3395C214.617 52.5673 213.485 52.3705 212.478 51.5257L212.233 51.3197L212.789 50.6567L212.986 50.8215C213.673 51.3985 214.277 51.2774 214.854 50.5898C215.101 50.2952 215.279 49.9838 215.522 49.644C215.72 49.3081 215.918 48.9722 216.207 48.6284C216.866 47.8427 217.56 47.7137 218.203 48.0442L218.224 48.0196C217.807 47.419 217.793 46.7376 218.453 45.9519C218.721 45.6326 219.017 45.3792 219.334 45.1012C219.606 44.8271 219.902 44.5736 220.129 44.3035C220.685 43.6405 220.749 43.0661 220.057 42.444L219.836 42.2585L220.392 41.5956L220.638 41.8016C221.669 42.667 222.039 43.7723 221.091 44.9019C220.803 45.2457 220.486 45.5237 220.148 45.8263C219.811 46.1289 219.473 46.4314 219.185 46.7752C218.834 47.1926 218.545 47.7868 219.404 48.5079L218.889 49.1218L218.865 49.1012Z" fill="#5B4CF0"/>
</g>
</svg>
