<svg width="375" height="210" viewBox="0 0 375 210" fill="none" xmlns="http://www.w3.org/2000/svg">
<defs>
<filter id="filter0_f" x="-34.3656" y="35.6344" width="443.731" height="198.731" filterUnits="userSpaceOnUse" color-interpolation-filters="sRGB">
<feFlood flood-opacity="0" result="BackgroundImageFix"/>
<feBlend mode="normal" in="SourceGraphic" in2="BackgroundImageFix" result="shape"/>
<feGaussianBlur stdDeviation="27.1828" result="effect1_foregroundBlur"/>
</filter>
<linearGradient id="paint0_linear" x1="20" y1="90" x2="20" y2="180" gradientUnits="userSpaceOnUse">
<stop stop-color="#9EE1EC"/>
<stop offset="1" stop-color="#E5A7E0"/>
</linearGradient>
<linearGradient id="paint1_linear" x1="-35.1001" y1="93.8106" x2="55.7744" y2="276.059" gradientUnits="userSpaceOnUse">
<stop stop-color="white"/>
<stop offset="1" stop-color="#CED8EB"/>
</linearGradient>
<linearGradient id="paint2_linear" x1="285.014" y1="74.0878" x2="293.498" y2="100.278" gradientUnits="userSpaceOnUse">
<stop stop-color="#7DCFDD"/>
<stop offset="1" stop-color="#C381BE"/>
</linearGradient>
<linearGradient id="paint3_linear" x1="286.254" y1="73.5509" x2="296.545" y2="99.0845" gradientUnits="userSpaceOnUse">
<stop stop-color="#7DCFDD"/>
<stop offset="1" stop-color="#C381BE"/>
</linearGradient>
<linearGradient id="paint4_linear" x1="287.419" y1="73.0808" x2="299.465" y2="97.8332" gradientUnits="userSpaceOnUse">
<stop stop-color="#7DCFDD"/>
<stop offset="1" stop-color="#C381BE"/>
</linearGradient>
<linearGradient id="paint5_linear" x1="288.513" y1="72.6827" x2="302.256" y2="96.5333" gradientUnits="userSpaceOnUse">
<stop stop-color="#7DCFDD"/>
<stop offset="1" stop-color="#C381BE"/>
</linearGradient>
<linearGradient id="paint6_linear" x1="289.541" y1="72.3612" x2="304.915" y2="95.1941" gradientUnits="userSpaceOnUse">
<stop stop-color="#7DCFDD"/>
<stop offset="1" stop-color="#C381BE"/>
</linearGradient>
<linearGradient id="paint7_linear" x1="290.509" y1="72.121" x2="307.438" y2="93.8249" gradientUnits="userSpaceOnUse">
<stop stop-color="#7DCFDD"/>
<stop offset="1" stop-color="#C381BE"/>
</linearGradient>
<linearGradient id="paint8_linear" x1="291.422" y1="71.9659" x2="309.824" y2="92.4352" gradientUnits="userSpaceOnUse">
<stop stop-color="#7DCFDD"/>
<stop offset="1" stop-color="#C381BE"/>
</linearGradient>
<linearGradient id="paint9_linear" x1="292.288" y1="71.8996" x2="312.072" y2="91.0348" gradientUnits="userSpaceOnUse">
<stop stop-color="#7DCFDD"/>
<stop offset="1" stop-color="#C381BE"/>
</linearGradient>
<linearGradient id="paint10_linear" x1="293.111" y1="71.9252" x2="314.182" y2="89.6332" gradientUnits="userSpaceOnUse">
<stop stop-color="#7DCFDD"/>
<stop offset="1" stop-color="#C381BE"/>
</linearGradient>
<linearGradient id="paint11_linear" x1="293.899" y1="72.0455" x2="316.154" y2="88.2402" gradientUnits="userSpaceOnUse">
<stop stop-color="#7DCFDD"/>
<stop offset="1" stop-color="#C381BE"/>
</linearGradient>
<linearGradient id="paint12_linear" x1="294.659" y1="72.2627" x2="317.989" y2="86.8654" gradientUnits="userSpaceOnUse">
<stop stop-color="#7DCFDD"/>
<stop offset="1" stop-color="#C381BE"/>
</linearGradient>
<linearGradient id="paint13_linear" x1="295.396" y1="72.5786" x2="319.688" y2="85.5183" gradientUnits="userSpaceOnUse">
<stop stop-color="#7DCFDD"/>
<stop offset="1" stop-color="#C381BE"/>
</linearGradient>
<linearGradient id="paint14_linear" x1="296.119" y1="72.9945" x2="321.254" y2="84.2083" gradientUnits="userSpaceOnUse">
<stop stop-color="#7DCFDD"/>
<stop offset="1" stop-color="#C381BE"/>
</linearGradient>
<linearGradient id="paint15_linear" x1="296.834" y1="73.5111" x2="322.69" y2="82.9445" gradientUnits="userSpaceOnUse">
<stop stop-color="#7DCFDD"/>
<stop offset="1" stop-color="#C381BE"/>
</linearGradient>
<linearGradient id="paint16_linear" x1="297.547" y1="74.1288" x2="323.999" y2="81.7359" gradientUnits="userSpaceOnUse">
<stop stop-color="#7DCFDD"/>
<stop offset="1" stop-color="#C381BE"/>
</linearGradient>
<linearGradient id="paint17_linear" x1="298.268" y1="74.8474" x2="325.186" y2="80.5913" gradientUnits="userSpaceOnUse">
<stop stop-color="#7DCFDD"/>
<stop offset="1" stop-color="#C381BE"/>
</linearGradient>
<linearGradient id="paint18_linear" x1="299.001" y1="75.6661" x2="326.256" y2="79.5187" gradientUnits="userSpaceOnUse">
<stop stop-color="#7DCFDD"/>
<stop offset="1" stop-color="#C381BE"/>
</linearGradient>
<linearGradient id="paint19_linear" x1="299.755" y1="76.5839" x2="327.213" y2="78.5265" gradientUnits="userSpaceOnUse">
<stop stop-color="#7DCFDD"/>
<stop offset="1" stop-color="#C381BE"/>
</linearGradient>
<linearGradient id="paint20_linear" x1="300.536" y1="77.599" x2="328.063" y2="77.622" gradientUnits="userSpaceOnUse">
<stop stop-color="#7DCFDD"/>
<stop offset="1" stop-color="#C381BE"/>
</linearGradient>
<linearGradient id="paint21_linear" x1="301.351" y1="78.7092" x2="328.813" y2="76.8125" gradientUnits="userSpaceOnUse">
<stop stop-color="#7DCFDD"/>
<stop offset="1" stop-color="#C381BE"/>
</linearGradient>
<linearGradient id="paint22_linear" x1="302.206" y1="79.912" x2="329.47" y2="76.1046" gradientUnits="userSpaceOnUse">
<stop stop-color="#7DCFDD"/>
<stop offset="1" stop-color="#C381BE"/>
</linearGradient>
<linearGradient id="paint23_linear" x1="303.108" y1="81.2043" x2="330.042" y2="75.5047" gradientUnits="userSpaceOnUse">
<stop stop-color="#7DCFDD"/>
<stop offset="1" stop-color="#C381BE"/>
</linearGradient>
<linearGradient id="paint24_linear" x1="304.063" y1="82.5826" x2="330.535" y2="75.0184" gradientUnits="userSpaceOnUse">
<stop stop-color="#7DCFDD"/>
<stop offset="1" stop-color="#C381BE"/>
</linearGradient>
<linearGradient id="paint25_linear" x1="305.076" y1="84.0428" x2="330.957" y2="74.6507" gradientUnits="userSpaceOnUse">
<stop stop-color="#7DCFDD"/>
<stop offset="1" stop-color="#C381BE"/>
</linearGradient>
<linearGradient id="paint26_linear" x1="306.155" y1="85.5809" x2="331.318" y2="74.4064" gradientUnits="userSpaceOnUse">
<stop stop-color="#7DCFDD"/>
<stop offset="1" stop-color="#C381BE"/>
</linearGradient>
<linearGradient id="paint27_linear" x1="307.302" y1="87.192" x2="331.626" y2="74.2895" gradientUnits="userSpaceOnUse">
<stop stop-color="#7DCFDD"/>
<stop offset="1" stop-color="#C381BE"/>
</linearGradient>
<linearGradient id="paint28_linear" x1="308.524" y1="88.8711" x2="331.89" y2="74.3032" gradientUnits="userSpaceOnUse">
<stop stop-color="#7DCFDD"/>
<stop offset="1" stop-color="#C381BE"/>
</linearGradient>
<linearGradient id="paint29_linear" x1="309.825" y1="90.6128" x2="332.119" y2="74.4503" gradientUnits="userSpaceOnUse">
<stop stop-color="#7DCFDD"/>
<stop offset="1" stop-color="#C381BE"/>
</linearGradient>
<linearGradient id="paint30_linear" x1="311.21" y1="92.4115" x2="332.323" y2="74.7331" gradientUnits="userSpaceOnUse">
<stop stop-color="#7DCFDD"/>
<stop offset="1" stop-color="#C381BE"/>
</linearGradient>
<linearGradient id="paint31_linear" x1="312.681" y1="94.2612" x2="332.51" y2="75.1529" gradientUnits="userSpaceOnUse">
<stop stop-color="#7DCFDD"/>
<stop offset="1" stop-color="#C381BE"/>
</linearGradient>
<linearGradient id="paint32_linear" x1="314.242" y1="96.1558" x2="332.691" y2="75.7106" gradientUnits="userSpaceOnUse">
<stop stop-color="#7DCFDD"/>
<stop offset="1" stop-color="#C381BE"/>
</linearGradient>
<linearGradient id="paint33_linear" x1="315.897" y1="98.0887" x2="332.875" y2="76.4063" gradientUnits="userSpaceOnUse">
<stop stop-color="#7DCFDD"/>
<stop offset="1" stop-color="#C381BE"/>
</linearGradient>
<linearGradient id="paint34_linear" x1="317.647" y1="100.054" x2="333.072" y2="77.2396" gradientUnits="userSpaceOnUse">
<stop stop-color="#7DCFDD"/>
<stop offset="1" stop-color="#C381BE"/>
</linearGradient>
<linearGradient id="paint35_linear" x1="319.857" y1="101.772" x2="333.619" y2="77.9712" gradientUnits="userSpaceOnUse">
<stop stop-color="#7DCFDD"/>
<stop offset="1" stop-color="#C381BE"/>
</linearGradient>
<linearGradient id="paint36_linear" x1="67.972" y1="113.767" x2="67.9577" y2="147.767" gradientUnits="userSpaceOnUse">
<stop stop-color="#7DCFDD"/>
<stop offset="1" stop-color="#C381BE"/>
</linearGradient>
<linearGradient id="paint37_linear" x1="67.9721" y1="113.767" x2="67.9577" y2="147.767" gradientUnits="userSpaceOnUse">
<stop stop-color="#7DCFDD"/>
<stop offset="1" stop-color="#C381BE"/>
</linearGradient>
<linearGradient id="paint38_linear" x1="67.9721" y1="113.767" x2="67.9577" y2="147.767" gradientUnits="userSpaceOnUse">
<stop stop-color="#7DCFDD"/>
<stop offset="1" stop-color="#C381BE"/>
</linearGradient>
<linearGradient id="paint39_linear" x1="68.2055" y1="114.116" x2="67.9734" y2="147.651" gradientUnits="userSpaceOnUse">
<stop stop-color="#7DCFDD"/>
<stop offset="1" stop-color="#C381BE"/>
</linearGradient>
<linearGradient id="paint40_linear" x1="68.6727" y1="113.883" x2="68.6727" y2="147.883" gradientUnits="userSpaceOnUse">
<stop stop-color="#7DCFDD"/>
<stop offset="1" stop-color="#C381BE"/>
</linearGradient>
</defs>
<g opacity="0.9" filter="url(#filter0_f)">
<rect x="20" y="90" width="335" height="90" rx="18" fill="url(#paint0_linear)"/>
</g>
<rect x="20" width="335" height="180" rx="20" fill="url(#paint1_linear)"/>
<mask id="mask0" mask-type="alpha" maskUnits="userSpaceOnUse" x="20" y="0" width="335" height="180">
<rect x="20" width="335" height="180" rx="20" fill="white"/>
</mask>
<g mask="url(#mask0)">
<path fill-rule="evenodd" clip-rule="evenodd" d="M305.113 142.991C377.617 95.8721 420.041 32.4757 399.869 1.39115C379.697 -29.6934 304.568 -16.695 232.063 30.4239C159.558 77.5428 117.134 140.939 137.306 172.024C157.478 203.108 232.608 190.11 305.113 142.991Z" stroke="url(#paint2_linear)" stroke-width="0.5"/>
<path fill-rule="evenodd" clip-rule="evenodd" d="M311.108 140.882C380.153 88.8184 418.055 22.6168 395.764 -6.98338C373.474 -36.5836 299.432 -18.3733 230.387 33.6903C161.342 85.7539 123.44 151.955 145.731 181.556C168.021 211.156 242.063 192.946 311.108 140.882Z" stroke="url(#paint3_linear)" stroke-width="0.5"/>
<path fill-rule="evenodd" clip-rule="evenodd" d="M316.907 138.512C382.155 81.7572 415.35 13.073 391.05 -14.8986C366.75 -42.8702 294.156 -19.5369 228.908 37.2178C163.659 93.9724 130.464 162.657 154.764 190.628C179.065 218.6 251.658 195.267 316.907 138.512Z" stroke="url(#paint4_linear)" stroke-width="0.5"/>
<path fill-rule="evenodd" clip-rule="evenodd" d="M322.491 135.895C383.626 74.7258 411.952 3.89363 385.76 -22.3131C359.569 -48.5198 288.777 -20.1772 227.642 40.992C166.508 102.161 138.182 172.993 164.373 199.2C190.565 225.407 261.357 197.064 322.491 135.895Z" stroke="url(#paint5_linear)" stroke-width="0.5"/>
<path fill-rule="evenodd" clip-rule="evenodd" d="M327.845 133.047C384.567 67.7613 407.887 -4.87387 379.931 -29.1881C351.976 -53.5023 283.331 -20.2883 226.608 44.9975C169.886 110.283 146.566 182.918 174.522 207.233C202.477 231.547 271.122 198.333 327.845 133.047Z" stroke="url(#paint6_linear)" stroke-width="0.5"/>
<path fill-rule="evenodd" clip-rule="evenodd" d="M332.952 129.984C384.985 60.9002 403.185 -13.1839 373.602 -35.4871C344.019 -57.7903 277.855 -19.8669 225.821 49.2174C173.787 118.302 155.587 192.386 185.171 214.689C214.754 236.992 280.918 199.069 332.952 129.984Z" stroke="url(#paint7_linear)" stroke-width="0.5"/>
<path fill-rule="evenodd" clip-rule="evenodd" d="M337.797 126.725C384.889 54.1791 397.88 -20.9932 366.814 -41.1767C335.747 -61.3603 272.387 -18.9121 225.295 53.634C178.203 126.18 165.212 201.352 196.278 221.536C227.345 241.72 290.705 199.271 337.797 126.725Z" stroke="url(#paint8_linear)" stroke-width="0.5"/>
<path fill-rule="evenodd" clip-rule="evenodd" d="M342.369 123.288C384.29 47.6333 392.009 -28.2608 359.61 -46.2264C327.211 -64.192 266.963 -17.4259 225.042 58.2287C183.121 133.883 175.402 209.777 207.801 227.743C240.2 245.709 300.448 198.942 342.369 123.288Z" stroke="url(#paint9_linear)" stroke-width="0.5"/>
<path fill-rule="evenodd" clip-rule="evenodd" d="M346.655 119.692C383.2 41.2976 385.61 -34.9487 352.036 -50.6088C318.463 -66.2689 261.621 -15.4126 225.076 62.9818C188.53 141.376 186.121 217.623 219.694 233.283C253.268 248.943 310.11 198.086 346.655 119.692Z" stroke="url(#paint10_linear)" stroke-width="0.5"/>
<path fill-rule="evenodd" clip-rule="evenodd" d="M350.645 115.958C381.637 35.2057 378.724 -41.0212 344.14 -54.2995C309.556 -67.5778 256.397 -12.8792 225.405 67.8732C194.413 148.626 197.326 224.853 231.91 238.131C266.494 251.409 319.653 196.711 350.645 115.958Z" stroke="url(#paint11_linear)" stroke-width="0.5"/>
<path fill-rule="evenodd" clip-rule="evenodd" d="M354.33 112.107C379.617 29.3901 371.397 -46.4461 335.971 -57.278C300.545 -68.1098 251.327 -9.83534 226.04 72.8816C200.753 155.599 208.972 231.435 244.399 242.267C279.825 253.098 329.043 194.824 354.33 112.107Z" stroke="url(#paint12_linear)" stroke-width="0.5"/>
<path fill-rule="evenodd" clip-rule="evenodd" d="M357.702 108.16C377.161 23.8819 363.675 -51.1942 327.579 -59.5267C291.483 -67.8593 246.446 -6.2929 226.987 77.9856C207.528 162.264 221.014 237.34 257.11 245.673C293.206 254.005 338.243 192.439 357.702 108.16Z" stroke="url(#paint13_linear)" stroke-width="0.5"/>
<path fill-rule="evenodd" clip-rule="evenodd" d="M360.756 104.14C374.293 18.7109 355.604 -55.2393 319.014 -61.032C282.425 -66.8247 241.789 -2.26632 228.252 83.1631C214.716 168.593 233.404 242.543 269.994 248.335C306.584 254.128 347.219 189.57 360.756 104.14Z" stroke="url(#paint14_linear)" stroke-width="0.5"/>
<path fill-rule="evenodd" clip-rule="evenodd" d="M363.487 100.069C371.035 13.9049 347.236 -58.559 310.331 -61.7836C273.426 -65.0082 237.389 2.22756 229.841 88.3917C222.293 174.556 246.091 247.02 282.997 250.244C319.902 253.469 355.939 186.233 363.487 100.069Z" stroke="url(#paint15_linear)" stroke-width="0.5"/>
<path fill-rule="evenodd" clip-rule="evenodd" d="M365.892 95.9694C367.415 9.49024 338.622 -61.1344 301.581 -61.7753C264.54 -62.4161 233.278 7.16961 231.755 93.6488C230.232 180.128 259.025 250.753 296.066 251.393C333.107 252.034 364.37 182.449 365.892 95.9694Z" stroke="url(#paint16_linear)" stroke-width="0.5"/>
<path fill-rule="evenodd" clip-rule="evenodd" d="M367.971 91.8641C363.461 5.49129 329.814 -62.9501 292.817 -61.004C255.821 -59.0579 229.485 12.5387 233.995 98.9115C238.505 185.284 272.153 253.726 309.149 251.78C346.145 249.833 372.481 178.237 367.971 91.8641Z" stroke="url(#paint17_linear)" stroke-width="0.5"/>
<path fill-rule="evenodd" clip-rule="evenodd" d="M369.724 87.7759C359.203 1.93025 320.865 -63.9943 284.094 -59.4708C247.322 -54.9473 226.042 18.3113 236.562 104.157C247.083 190.003 285.421 255.927 322.192 251.404C358.964 246.88 380.244 173.622 369.724 87.7759Z" stroke="url(#paint18_linear)" stroke-width="0.5"/>
<path fill-rule="evenodd" clip-rule="evenodd" d="M371.152 83.7277C354.672 -1.17257 311.83 -64.2593 275.463 -57.1803C239.095 -50.1014 222.974 24.4624 239.454 109.363C255.934 194.263 298.775 257.35 335.142 250.271C371.51 243.192 387.632 168.628 371.152 83.7277Z" stroke="url(#paint19_linear)" stroke-width="0.5"/>
<path fill-rule="evenodd" clip-rule="evenodd" d="M372.259 79.7418C349.9 -3.7994 302.763 -63.7408 266.977 -54.141C231.191 -44.5411 220.307 30.9646 242.666 114.506C265.025 198.047 312.161 257.988 347.947 248.389C383.733 238.789 394.618 163.283 372.259 79.7418Z" stroke="url(#paint20_linear)" stroke-width="0.5"/>
<path fill-rule="evenodd" clip-rule="evenodd" d="M373.05 75.8407C344.921 -5.93451 293.719 -62.4386 258.689 -50.3646C223.658 -38.2907 218.064 37.7891 246.194 119.564C274.323 201.34 325.525 257.844 360.555 245.77C395.586 233.696 401.18 157.616 373.05 75.8407Z" stroke="url(#paint21_linear)" stroke-width="0.5"/>
<path fill-rule="evenodd" clip-rule="evenodd" d="M373.533 72.0461C339.77 -7.56473 284.753 -60.3562 250.649 -45.8669C216.545 -31.3777 216.268 44.9055 250.031 124.516C283.793 204.127 338.81 256.919 372.915 242.429C407.019 227.94 407.296 151.657 373.533 72.0461Z" stroke="url(#paint22_linear)" stroke-width="0.5"/>
<path fill-rule="evenodd" clip-rule="evenodd" d="M373.714 68.3793C334.483 -8.6792 275.918 -57.5008 242.906 -40.6669C209.895 -23.8329 214.937 52.282 254.168 129.341C293.4 206.399 351.964 255.221 384.976 238.387C417.988 221.553 412.946 145.438 373.714 68.3793Z" stroke="url(#paint23_linear)" stroke-width="0.5"/>
<path fill-rule="evenodd" clip-rule="evenodd" d="M373.605 64.861C329.096 -9.26982 267.269 -53.8838 235.51 -34.7871C203.752 -15.6905 214.088 59.8854 258.597 134.016C303.106 208.147 364.933 252.761 396.692 233.664C428.45 214.568 418.114 138.992 373.605 64.861Z" stroke="url(#paint24_linear)" stroke-width="0.5"/>
<path fill-rule="evenodd" clip-rule="evenodd" d="M373.215 61.5111C323.645 -9.33084 258.857 -49.5198 228.507 -28.2535C198.156 -6.98714 213.736 67.6814 263.306 138.523C312.876 209.365 377.664 249.554 408.015 228.288C438.365 207.022 422.785 132.353 373.215 61.5111Z" stroke="url(#paint25_linear)" stroke-width="0.5"/>
<path fill-rule="evenodd" clip-rule="evenodd" d="M372.558 58.3489C318.169 -8.85912 250.735 -44.4273 221.94 -21.0949C193.146 2.23752 213.894 75.635 268.283 142.843C322.672 210.051 390.106 245.619 418.901 222.287C447.695 198.954 426.947 125.557 372.558 58.3489Z" stroke="url(#paint26_linear)" stroke-width="0.5"/>
<path fill-rule="evenodd" clip-rule="evenodd" d="M371.646 55.3925C312.703 -7.85408 242.952 -38.6282 215.854 -13.3434C188.755 11.9414 214.571 83.7103 273.514 146.957C332.457 210.203 402.208 240.978 429.307 215.693C456.405 190.408 430.59 118.639 371.646 55.3925Z" stroke="url(#paint27_linear)" stroke-width="0.5"/>
<path fill-rule="evenodd" clip-rule="evenodd" d="M370.496 52.6591C307.285 -6.31792 235.558 -32.148 210.287 -5.034C185.017 22.08 215.773 91.8706 278.984 150.848C342.194 209.825 413.922 235.655 439.193 208.541C464.463 181.427 433.706 111.636 370.496 52.6591Z" stroke="url(#paint28_linear)" stroke-width="0.5"/>
<path fill-rule="evenodd" clip-rule="evenodd" d="M369.123 50.1649C301.953 -4.25527 228.597 -25.0155 205.278 3.79561C181.959 32.6067 217.507 100.079 284.677 154.499C351.846 208.919 425.202 229.68 448.521 200.868C471.84 172.057 436.292 104.585 369.123 50.1649Z" stroke="url(#paint29_linear)" stroke-width="0.5"/>
<path fill-rule="evenodd" clip-rule="evenodd" d="M367.543 47.9248C296.742 -1.6733 222.116 -17.2625 200.862 13.1053C179.607 43.4732 219.773 108.298 290.575 157.897C361.377 207.495 436.003 223.084 457.257 192.716C478.511 162.348 438.345 97.523 367.543 47.9248Z" stroke="url(#paint30_linear)" stroke-width="0.5"/>
<path fill-rule="evenodd" clip-rule="evenodd" d="M365.777 45.9527C291.688 1.41819 216.156 -8.92409 197.07 22.8526C177.984 54.6292 222.572 116.492 296.661 161.026C370.75 205.561 446.282 215.903 465.368 184.126C484.454 152.35 439.865 90.4872 365.777 45.9527Z" stroke="url(#paint31_linear)" stroke-width="0.5"/>
<path fill-rule="evenodd" clip-rule="evenodd" d="M363.842 44.2608C286.827 5.00693 210.756 -0.0379966 193.931 32.9926C177.107 66.0233 225.901 124.621 302.915 163.875C379.93 203.129 456.001 208.174 472.826 175.144C489.65 142.113 440.856 83.5147 363.842 44.2608Z" stroke="url(#paint32_linear)" stroke-width="0.5"/>
<path fill-rule="evenodd" clip-rule="evenodd" d="M361.758 42.8603C282.193 9.07832 205.953 9.35528 191.472 43.479C176.991 77.6027 229.753 132.651 309.318 166.433C388.884 200.215 465.123 199.938 479.604 165.815C494.085 131.691 441.324 76.6424 361.758 42.8603Z" stroke="url(#paint33_linear)" stroke-width="0.5"/>
<path fill-rule="evenodd" clip-rule="evenodd" d="M359.547 41.7609C277.819 13.6153 201.782 19.2128 189.715 54.2633C177.648 89.3138 234.12 140.544 315.849 168.69C397.577 196.836 473.614 191.238 485.681 156.188C497.748 121.137 441.276 69.9065 359.547 41.7609Z" stroke="url(#paint34_linear)" stroke-width="0.5"/>
<path fill-rule="evenodd" clip-rule="evenodd" d="M357.558 40.8175C274.071 18.4471 198.627 29.2872 189.05 65.0294C179.473 100.772 239.389 147.881 322.877 170.252C406.364 192.622 481.808 181.782 491.385 146.04C500.962 110.298 441.046 63.1879 357.558 40.8175Z" stroke="url(#paint35_linear)" stroke-width="0.5"/>
</g>
<path d="M56.856 76.2158C58.8047 76.2158 60.252 75.1304 60.5566 73.4546V73.4419H59.4014L59.3887 73.4546C59.103 74.5083 58.1318 75.1621 56.856 75.1621C55.0913 75.1621 53.9868 73.7212 53.9868 71.4297V71.417C53.9868 69.1255 55.0913 67.6782 56.8496 67.6782C58.1128 67.6782 59.0903 68.4209 59.395 69.5952L59.4014 69.6079H60.5503L60.5566 69.5952C60.2837 67.8369 58.7793 66.6245 56.8496 66.6245C54.3613 66.6245 52.8125 68.4653 52.8125 71.417V71.4297C52.8125 74.375 54.3677 76.2158 56.856 76.2158ZM65.127 76.1206C66.7393 76.1206 67.7168 75.2065 67.9517 74.2798L67.9644 74.229H66.8599L66.8345 74.2861C66.6504 74.6987 66.0791 75.1367 65.1523 75.1367C63.9336 75.1367 63.1528 74.3115 63.1211 72.896H68.0469V72.4644C68.0469 70.4204 66.917 69.0366 65.0571 69.0366C63.1973 69.0366 61.9912 70.4839 61.9912 72.5977V72.604C61.9912 74.7495 63.1719 76.1206 65.127 76.1206ZM65.0508 70.0205C66.0601 70.0205 66.8091 70.6616 66.9233 72.0137H63.1401C63.2607 70.7124 64.0352 70.0205 65.0508 70.0205ZM69.7607 76H70.8652V71.7598C70.8652 70.7568 71.6143 70.0903 72.668 70.0903C72.9092 70.0903 73.1187 70.1157 73.3472 70.1538V69.0811C73.2393 69.062 73.0044 69.0366 72.7949 69.0366C71.8682 69.0366 71.2271 69.4556 70.9668 70.1729H70.8652V69.1572H69.7607V76ZM77.5239 76.0508C77.7397 76.0508 77.9492 76.0254 78.165 75.9873V75.0479C77.9619 75.0669 77.854 75.0732 77.6572 75.0732C76.9463 75.0732 76.667 74.7495 76.667 73.9434V70.0713H78.165V69.1572H76.667V67.3862H75.5244V69.1572H74.4453V70.0713H75.5244V74.2227C75.5244 75.5303 76.1147 76.0508 77.5239 76.0508ZM80.3994 67.8369C80.8184 67.8369 81.1611 67.4941 81.1611 67.0752C81.1611 66.6562 80.8184 66.3135 80.3994 66.3135C79.9805 66.3135 79.6377 66.6562 79.6377 67.0752C79.6377 67.4941 79.9805 67.8369 80.3994 67.8369ZM79.8408 76H80.9453V69.1572H79.8408V76ZM83.4844 76H84.5889V70.0713H86.144V69.1572H84.5889V68.4272C84.5889 67.6782 84.9062 67.291 85.6934 67.291C85.8901 67.291 86.0742 67.2974 86.2075 67.3228V66.4404C85.979 66.396 85.7378 66.377 85.4712 66.377C84.1699 66.377 83.4844 67.0308 83.4844 68.3955V69.1572H82.3481V70.0713H83.4844V76ZM88.3213 67.8369C88.7402 67.8369 89.083 67.4941 89.083 67.0752C89.083 66.6562 88.7402 66.3135 88.3213 66.3135C87.9023 66.3135 87.5596 66.6562 87.5596 67.0752C87.5596 67.4941 87.9023 67.8369 88.3213 67.8369ZM87.7627 76H88.8672V69.1572H87.7627V76ZM93.7422 76.1206C95.3545 76.1206 96.332 75.2065 96.5669 74.2798L96.5796 74.229H95.4751L95.4497 74.2861C95.2656 74.6987 94.6943 75.1367 93.7676 75.1367C92.5488 75.1367 91.7681 74.3115 91.7363 72.896H96.6621V72.4644C96.6621 70.4204 95.5322 69.0366 93.6724 69.0366C91.8125 69.0366 90.6064 70.4839 90.6064 72.5977V72.604C90.6064 74.7495 91.7871 76.1206 93.7422 76.1206ZM93.666 70.0205C94.6753 70.0205 95.4243 70.6616 95.5386 72.0137H91.7554C91.876 70.7124 92.6504 70.0205 93.666 70.0205ZM100.902 76.1206C101.854 76.1206 102.616 75.6699 103.035 74.9082H103.137V76H104.241V66.4404H103.137V70.2363H103.035C102.661 69.5063 101.842 69.0366 100.902 69.0366C99.1631 69.0366 98.0332 70.4268 98.0332 72.5723V72.585C98.0332 74.7178 99.1694 76.1206 100.902 76.1206ZM101.156 75.1431C99.9058 75.1431 99.1631 74.1782 99.1631 72.585V72.5723C99.1631 70.979 99.9058 70.0142 101.156 70.0142C102.4 70.0142 103.162 70.9917 103.162 72.5723V72.585C103.162 74.1655 102.4 75.1431 101.156 75.1431ZM113.42 76.1206C115.153 76.1206 116.289 74.7178 116.289 72.585V72.5723C116.289 70.4268 115.159 69.0366 113.42 69.0366C112.48 69.0366 111.662 69.5063 111.287 70.2363H111.186V66.4404H110.081V76H111.186V74.9082H111.287C111.706 75.6699 112.468 76.1206 113.42 76.1206ZM113.166 75.1431C111.922 75.1431 111.16 74.1655 111.16 72.585V72.5723C111.16 70.9917 111.922 70.0142 113.166 70.0142C114.417 70.0142 115.159 70.979 115.159 72.5723V72.585C115.159 74.1782 114.417 75.1431 113.166 75.1431ZM118.333 78.3994C119.545 78.3994 120.11 77.9551 120.675 76.4189L123.348 69.1572H122.186L120.313 74.7876H120.212L118.333 69.1572H117.152L119.685 76.0063L119.558 76.4126C119.311 77.1997 118.93 77.4854 118.301 77.4854C118.149 77.4854 117.978 77.479 117.844 77.4536V78.3613C117.997 78.3867 118.187 78.3994 118.333 78.3994ZM130.565 76.2158C132.26 76.2158 133.263 75.1875 133.263 73.4546V66.8403H132.12V73.4419C132.12 74.5591 131.574 75.1621 130.559 75.1621C129.651 75.1621 129.2 74.5845 129.13 73.8926L129.124 73.8291H127.981L127.988 73.918C128.083 75.2319 128.978 76.2158 130.565 76.2158ZM138.271 76.1206C140.22 76.1206 141.426 74.7749 141.426 72.585V72.5723C141.426 70.376 140.22 69.0366 138.271 69.0366C136.322 69.0366 135.116 70.376 135.116 72.5723V72.585C135.116 74.7749 136.322 76.1206 138.271 76.1206ZM138.271 75.1431C136.976 75.1431 136.246 74.1973 136.246 72.585V72.5723C136.246 70.9536 136.976 70.0142 138.271 70.0142C139.566 70.0142 140.296 70.9536 140.296 72.5723V72.585C140.296 74.1973 139.566 75.1431 138.271 75.1431ZM143.203 76H144.308V71.9502C144.308 70.7505 145 70.0142 146.091 70.0142C147.183 70.0142 147.691 70.6045 147.691 71.8359V76H148.795V71.5693C148.795 69.9443 147.938 69.0366 146.402 69.0366C145.393 69.0366 144.752 69.4619 144.409 70.1855H144.308V66.4404H143.203V76ZM150.795 76H151.899V71.9502C151.899 70.7505 152.591 70.0142 153.683 70.0142C154.775 70.0142 155.283 70.6045 155.283 71.8359V76H156.387V71.5693C156.387 69.9443 155.53 69.0366 153.994 69.0366C152.985 69.0366 152.344 69.4619 152.001 70.1855H151.899V69.1572H150.795V76ZM162.183 76H165.325C168.048 76 169.647 74.3052 169.647 71.4233V71.4106C169.647 68.5352 168.042 66.8403 165.325 66.8403H162.183V76ZM163.325 74.9717V67.8687H165.249C167.28 67.8687 168.479 69.189 168.479 71.4233V71.436C168.479 73.6641 167.292 74.9717 165.249 74.9717H163.325ZM174.3 76.1206C176.249 76.1206 177.455 74.7749 177.455 72.585V72.5723C177.455 70.376 176.249 69.0366 174.3 69.0366C172.352 69.0366 171.146 70.376 171.146 72.5723V72.585C171.146 74.7749 172.352 76.1206 174.3 76.1206ZM174.3 75.1431C173.005 75.1431 172.275 74.1973 172.275 72.585V72.5723C172.275 70.9536 173.005 70.0142 174.3 70.0142C175.595 70.0142 176.325 70.9536 176.325 72.5723V72.585C176.325 74.1973 175.595 75.1431 174.3 75.1431ZM181.962 76.1206C183.574 76.1206 184.552 75.2065 184.787 74.2798L184.799 74.229H183.695L183.669 74.2861C183.485 74.6987 182.914 75.1367 181.987 75.1367C180.769 75.1367 179.988 74.3115 179.956 72.896H184.882V72.4644C184.882 70.4204 183.752 69.0366 181.892 69.0366C180.032 69.0366 178.826 70.4839 178.826 72.5977V72.604C178.826 74.7495 180.007 76.1206 181.962 76.1206ZM181.886 70.0205C182.895 70.0205 183.644 70.6616 183.758 72.0137H179.975C180.096 70.7124 180.87 70.0205 181.886 70.0205Z" fill="#797F8A"/>
<path d="M52.7734 53H56.1787L57.3281 49.2402H62.7959L63.9453 53H67.3613L61.9688 37.499H58.1553L52.7734 53ZM59.9707 40.5928H60.1641L62.0547 46.8125H58.0693L59.9707 40.5928ZM69.9932 53H73.2373V47.3281H75.8906L78.7803 53H82.4541L79.1885 46.8447C80.9609 46.1465 81.9922 44.4385 81.9922 42.4512V42.4297C81.9922 39.3789 79.9727 37.499 76.4492 37.499H69.9932V53ZM73.2373 44.9648V40.0342H76.0518C77.6738 40.0342 78.6729 41.001 78.6729 42.4941V42.5156C78.6729 44.041 77.7168 44.9648 76.0947 44.9648H73.2373ZM85.0645 53H88.2012V49.0361L89.0605 48.123L92.5088 53H96.2148L91.3594 46.1895L95.9033 41.1729H92.3477L88.3945 45.8457H88.2012V36.6504H85.0645V53ZM99.792 39.3574C100.759 39.3574 101.554 38.584 101.554 37.6172C101.554 36.6396 100.759 35.8662 99.792 35.8662C98.8252 35.8662 98.0195 36.6396 98.0195 37.6172C98.0195 38.584 98.8252 39.3574 99.792 39.3574ZM98.2129 53H101.35V41.1729H98.2129V53ZM109.417 53.043C110.019 53.043 110.599 52.9785 110.985 52.9033V50.5723C110.685 50.6045 110.47 50.626 110.062 50.626C108.998 50.626 108.547 50.1533 108.547 49.0898V43.5361H110.985V41.1729H108.547V38.3477H105.378V41.1729H103.552V43.5361H105.378V49.8096C105.378 52.1084 106.538 53.043 109.417 53.043ZM126.325 53.3975C130.558 53.3975 133.2 50.8193 133.2 46.7051V44.7393H126.69V47.1025H130.042L130.031 47.3926C129.967 49.3477 128.506 50.6475 126.379 50.6475C123.822 50.6475 122.2 48.5742 122.2 45.2119V45.1904C122.2 41.8926 123.747 39.8516 126.25 39.8516C128.065 39.8516 129.387 40.7646 129.827 42.3008L129.849 42.4082H133.071L133.05 42.3008C132.588 39.207 129.913 37.1016 126.25 37.1016C121.738 37.1016 118.892 40.249 118.892 45.2227V45.2441C118.892 50.293 121.717 53.3975 126.325 53.3975ZM139.119 53.1826C140.666 53.1826 141.912 52.5273 142.514 51.4316H142.707V53H145.801V44.9219C145.801 42.3975 144.028 40.915 140.892 40.915C137.916 40.915 135.961 42.29 135.714 44.3633L135.703 44.46H138.604L138.625 44.417C138.872 43.7188 139.592 43.3213 140.72 43.3213C142.009 43.3213 142.707 43.9014 142.707 44.9219V45.8994L139.85 46.0713C136.906 46.2432 135.263 47.4893 135.263 49.6162V49.6377C135.263 51.7861 136.863 53.1826 139.119 53.1826ZM138.324 49.4443V49.4229C138.324 48.5635 138.979 48.0586 140.322 47.9727L142.707 47.8223V48.6924C142.707 49.9385 141.622 50.8945 140.172 50.8945C139.087 50.8945 138.324 50.3467 138.324 49.4443ZM148.873 53H152.01V45.8672C152.01 44.5137 152.869 43.5146 154.094 43.5146C155.318 43.5146 156.038 44.2559 156.038 45.5234V53H159.175V45.7275C159.175 44.4492 159.991 43.5146 161.259 43.5146C162.569 43.5146 163.214 44.2344 163.214 45.6631V53H166.351V44.8789C166.351 42.4404 164.879 40.915 162.526 40.915C160.872 40.915 159.497 41.7852 158.96 43.0957H158.767C158.283 41.7314 157.091 40.915 155.479 40.915C153.933 40.915 152.708 41.6885 152.203 43.0205H152.01V41.1729H148.873V53ZM174.59 53.2471C178.049 53.2471 179.574 51.249 179.939 49.7666L179.961 49.6592H177.039L177.007 49.7236C176.792 50.1748 176.029 50.9053 174.654 50.9053C172.989 50.9053 171.947 49.7773 171.915 47.833H180.058V46.8555C180.058 43.2783 177.909 40.915 174.461 40.915C171.013 40.915 168.811 43.332 168.811 47.0918V47.1025C168.811 50.8945 170.991 53.2471 174.59 53.2471ZM174.515 43.2676C175.879 43.2676 176.856 44.1484 177.05 45.8672H171.947C172.141 44.1914 173.15 43.2676 174.515 43.2676Z" fill="#242629"/>
<mask id="mask1" mask-type="alpha" maskUnits="userSpaceOnUse" x="52" y="134" width="32" height="14">
<rect x="52" y="134.726" width="32" height="13.274" fill="#C4C4C4"/>
</mask>
<g mask="url(#mask1)">
<path d="M82.7935 137.426L70.0756 130.12C68.8736 129.424 66.9349 129.424 65.7329 130.12L53.0926 137.426C51.8906 138.122 51.9294 139.243 53.0926 139.939L65.8105 147.245C67.0125 147.941 68.9511 147.941 70.1531 147.245L82.7935 139.939C84.0342 139.243 83.9955 138.122 82.7935 137.426Z" stroke="url(#paint36_linear)" stroke-width="0.6"/>
</g>
<mask id="mask2" mask-type="alpha" maskUnits="userSpaceOnUse" x="55" y="134" width="3" height="2">
<rect x="55.3167" y="134.493" width="2.56934" height="1.39726" fill="#C4C4C4"/>
</mask>
<g mask="url(#mask2)">
<path d="M82.7935 137.426L70.0756 130.12C68.8737 129.424 66.935 129.424 65.733 130.12L53.0926 137.426C51.8907 138.122 51.9294 139.243 53.0926 139.939L65.8105 147.245C67.0125 147.941 68.9512 147.941 70.1532 147.245L82.7935 139.939C84.0343 139.243 83.9955 138.122 82.7935 137.426Z" stroke="url(#paint37_linear)" stroke-width="0.6"/>
</g>
<mask id="mask3" mask-type="alpha" maskUnits="userSpaceOnUse" x="77" y="134" width="2" height="1">
<rect x="77.927" y="134.493" width="0.934306" height="0.465753" fill="#C4C4C4"/>
</mask>
<g mask="url(#mask3)">
<path d="M82.7935 137.426L70.0756 130.12C68.8737 129.424 66.935 129.424 65.733 130.12L53.0926 137.426C51.8907 138.122 51.9294 139.243 53.0926 139.939L65.8105 147.245C67.0125 147.941 68.9512 147.941 70.1532 147.245L82.7935 139.939C84.0343 139.243 83.9955 138.122 82.7935 137.426Z" stroke="url(#paint38_linear)" stroke-width="0.6"/>
</g>
<path d="M80.7161 126.757C80.7161 133.793 74.9388 139.514 67.9207 139.514C60.9026 139.514 55.1252 133.754 55.1252 126.757C55.1252 119.76 60.9026 114 67.9207 114C74.9388 114 80.7161 119.721 80.7161 126.757Z" stroke="url(#paint39_linear)" stroke-width="0.6"/>
<path d="M70.9057 126.95C69.5486 126.95 69.3547 127.762 69.3547 128.38C69.3547 128.883 69.4323 129.424 69.5098 129.926C69.5874 130.429 69.6649 130.97 69.6649 131.511C69.6649 133.444 68.4629 134.14 66.8731 134.14H66.4854V133.096H66.7956C67.8813 133.096 68.3466 132.517 68.3466 131.434C68.3466 130.97 68.2691 130.545 68.2303 130.042C68.1527 129.579 68.0752 129.115 68.0752 128.573C68.0752 127.336 68.618 126.679 69.471 126.486V126.447C68.618 126.215 68.0752 125.597 68.0752 124.36C68.0752 123.857 68.1527 123.393 68.2303 122.891C68.2691 122.427 68.3466 121.963 68.3466 121.538C68.3466 120.494 67.9589 119.914 66.8344 119.875H66.4854V118.832H66.8731C68.5017 118.832 69.7037 119.566 69.7037 121.344C69.7037 121.886 69.6261 122.388 69.5486 122.929C69.471 123.471 69.3935 124.012 69.3935 124.553C69.3935 125.21 69.5874 125.983 70.9444 125.983V126.95H70.9057Z" stroke="url(#paint40_linear)" stroke-width="0.6"/>
</svg>
