<svg width="375" height="235" viewBox="0 0 375 235" fill="none" xmlns="http://www.w3.org/2000/svg">
<defs>
<filter id="filter0_f" x="-34.3656" y="35.6344" width="443.731" height="198.731" filterUnits="userSpaceOnUse" color-interpolation-filters="sRGB">
<feFlood flood-opacity="0" result="BackgroundImageFix"/>
<feBlend mode="normal" in="SourceGraphic" in2="BackgroundImageFix" result="shape"/>
<feGaussianBlur stdDeviation="27.1828" result="effect1_foregroundBlur"/>
</filter>
<radialGradient id="paint0_radial" cx="0" cy="0" r="1" gradientUnits="userSpaceOnUse" gradientTransform="translate(-151.343 68.5952) rotate(20.5672) scale(260.267 75.9262)">
<stop stop-color="#5C5F66"/>
<stop offset="1" stop-color="#242629"/>
</radialGradient>
<radialGradient id="paint1_radial" cx="0" cy="0" r="1" gradientUnits="userSpaceOnUse" gradientTransform="translate(-151.343 -42.8096) rotate(36.8862) scale(304.662 129.725)">
<stop stop-color="#5C5F66"/>
<stop offset="1" stop-color="#242629"/>
</radialGradient>
<linearGradient id="paint2_linear" x1="190.854" y1="32.9204" x2="188.74" y2="124.111" gradientUnits="userSpaceOnUse">
<stop stop-color="#242629" stop-opacity="0.01"/>
<stop offset="0.450441" stop-color="#242629" stop-opacity="0.01"/>
<stop offset="1" stop-color="white"/>
</linearGradient>
<linearGradient id="paint3_linear" x1="183.479" y1="39.1026" x2="187.731" y2="130.214" gradientUnits="userSpaceOnUse">
<stop stop-color="#242629" stop-opacity="0.01"/>
<stop offset="0.450441" stop-color="#242629" stop-opacity="0.01"/>
<stop offset="1" stop-color="white"/>
</linearGradient>
<linearGradient id="paint4_linear" x1="176.659" y1="45.6702" x2="187.257" y2="136.259" gradientUnits="userSpaceOnUse">
<stop stop-color="#242629" stop-opacity="0.01"/>
<stop offset="0.450441" stop-color="#242629" stop-opacity="0.01"/>
<stop offset="1" stop-color="white"/>
</linearGradient>
<linearGradient id="paint5_linear" x1="170.421" y1="52.5833" x2="187.312" y2="142.208" gradientUnits="userSpaceOnUse">
<stop stop-color="#242629" stop-opacity="0.01"/>
<stop offset="0.450441" stop-color="#242629" stop-opacity="0.01"/>
<stop offset="1" stop-color="white"/>
</linearGradient>
<linearGradient id="paint6_linear" x1="164.787" y1="59.8005" x2="187.889" y2="148.026" gradientUnits="userSpaceOnUse">
<stop stop-color="#242629" stop-opacity="0.01"/>
<stop offset="0.450441" stop-color="#242629" stop-opacity="0.01"/>
<stop offset="1" stop-color="white"/>
</linearGradient>
<linearGradient id="paint7_linear" x1="159.778" y1="67.2785" x2="188.977" y2="153.674" gradientUnits="userSpaceOnUse">
<stop stop-color="#242629" stop-opacity="0.01"/>
<stop offset="0.450441" stop-color="#242629" stop-opacity="0.01"/>
<stop offset="1" stop-color="white"/>
</linearGradient>
<linearGradient id="paint8_linear" x1="155.41" y1="74.9731" x2="190.564" y2="159.119" gradientUnits="userSpaceOnUse">
<stop stop-color="#242629" stop-opacity="0.01"/>
<stop offset="0.450441" stop-color="#242629" stop-opacity="0.01"/>
<stop offset="1" stop-color="white"/>
</linearGradient>
<linearGradient id="paint9_linear" x1="151.695" y1="82.8391" x2="192.633" y2="164.325" gradientUnits="userSpaceOnUse">
<stop stop-color="#242629" stop-opacity="0.01"/>
<stop offset="0.450441" stop-color="#242629" stop-opacity="0.01"/>
<stop offset="1" stop-color="white"/>
</linearGradient>
<linearGradient id="paint10_linear" x1="148.646" y1="90.8301" x2="195.167" y2="169.261" gradientUnits="userSpaceOnUse">
<stop stop-color="#242629" stop-opacity="0.01"/>
<stop offset="0.450441" stop-color="#242629" stop-opacity="0.01"/>
<stop offset="1" stop-color="white"/>
</linearGradient>
<linearGradient id="paint11_linear" x1="146.268" y1="98.8994" x2="198.146" y2="173.893" gradientUnits="userSpaceOnUse">
<stop stop-color="#242629" stop-opacity="0.01"/>
<stop offset="0.450441" stop-color="#242629" stop-opacity="0.01"/>
<stop offset="1" stop-color="white"/>
</linearGradient>
<linearGradient id="paint12_linear" x1="144.565" y1="107" x2="201.548" y2="178.191" gradientUnits="userSpaceOnUse">
<stop stop-color="#242629" stop-opacity="0.01"/>
<stop offset="0.450441" stop-color="#242629" stop-opacity="0.01"/>
<stop offset="1" stop-color="white"/>
</linearGradient>
<linearGradient id="paint13_linear" x1="143.538" y1="115.085" x2="205.348" y2="182.128" gradientUnits="userSpaceOnUse">
<stop stop-color="#242629" stop-opacity="0.01"/>
<stop offset="0.450441" stop-color="#242629" stop-opacity="0.01"/>
<stop offset="1" stop-color="white"/>
</linearGradient>
<linearGradient id="paint14_linear" x1="143.184" y1="123.106" x2="209.52" y2="185.675" gradientUnits="userSpaceOnUse">
<stop stop-color="#242629" stop-opacity="0.01"/>
<stop offset="0.450441" stop-color="#242629" stop-opacity="0.01"/>
<stop offset="1" stop-color="white"/>
</linearGradient>
<linearGradient id="paint15_linear" x1="143.496" y1="131.018" x2="214.037" y2="188.807" gradientUnits="userSpaceOnUse">
<stop stop-color="#242629" stop-opacity="0.01"/>
<stop offset="0.450441" stop-color="#242629" stop-opacity="0.01"/>
<stop offset="1" stop-color="white"/>
</linearGradient>
<linearGradient id="paint16_linear" x1="144.466" y1="138.774" x2="218.867" y2="191.503" gradientUnits="userSpaceOnUse">
<stop stop-color="#242629" stop-opacity="0.01"/>
<stop offset="0.450441" stop-color="#242629" stop-opacity="0.01"/>
<stop offset="1" stop-color="white"/>
</linearGradient>
<linearGradient id="paint17_linear" x1="146.081" y1="146.328" x2="223.98" y2="193.74" gradientUnits="userSpaceOnUse">
<stop stop-color="#242629" stop-opacity="0.01"/>
<stop offset="0.450441" stop-color="#242629" stop-opacity="0.01"/>
<stop offset="1" stop-color="white"/>
</linearGradient>
<linearGradient id="paint18_linear" x1="148.324" y1="153.636" x2="229.344" y2="195.501" gradientUnits="userSpaceOnUse">
<stop stop-color="#242629" stop-opacity="0.01"/>
<stop offset="0.450441" stop-color="#242629" stop-opacity="0.01"/>
<stop offset="1" stop-color="white"/>
</linearGradient>
<linearGradient id="paint19_linear" x1="151.178" y1="160.656" x2="234.923" y2="196.768" gradientUnits="userSpaceOnUse">
<stop stop-color="#242629" stop-opacity="0.01"/>
<stop offset="0.450441" stop-color="#242629" stop-opacity="0.01"/>
<stop offset="1" stop-color="white"/>
</linearGradient>
<linearGradient id="paint20_linear" x1="154.62" y1="167.345" x2="240.684" y2="197.529" gradientUnits="userSpaceOnUse">
<stop stop-color="#242629" stop-opacity="0.01"/>
<stop offset="0.450441" stop-color="#242629" stop-opacity="0.01"/>
<stop offset="1" stop-color="white"/>
</linearGradient>
<linearGradient id="paint21_linear" x1="158.627" y1="173.663" x2="246.589" y2="197.772" gradientUnits="userSpaceOnUse">
<stop stop-color="#242629" stop-opacity="0.01"/>
<stop offset="0.450441" stop-color="#242629" stop-opacity="0.01"/>
<stop offset="1" stop-color="white"/>
</linearGradient>
<linearGradient id="paint22_linear" x1="163.17" y1="179.572" x2="252.604" y2="197.488" gradientUnits="userSpaceOnUse">
<stop stop-color="#242629" stop-opacity="0.01"/>
<stop offset="0.450441" stop-color="#242629" stop-opacity="0.01"/>
<stop offset="1" stop-color="white"/>
</linearGradient>
<linearGradient id="paint23_linear" x1="168.221" y1="185.036" x2="258.69" y2="196.67" gradientUnits="userSpaceOnUse">
<stop stop-color="#242629" stop-opacity="0.01"/>
<stop offset="0.450441" stop-color="#242629" stop-opacity="0.01"/>
<stop offset="1" stop-color="white"/>
</linearGradient>
<linearGradient id="paint24_linear" x1="173.746" y1="190.02" x2="264.811" y2="195.316" gradientUnits="userSpaceOnUse">
<stop stop-color="#242629" stop-opacity="0.01"/>
<stop offset="0.450441" stop-color="#242629" stop-opacity="0.01"/>
<stop offset="1" stop-color="white"/>
</linearGradient>
<linearGradient id="paint25_linear" x1="179.712" y1="194.493" x2="270.928" y2="193.424" gradientUnits="userSpaceOnUse">
<stop stop-color="#242629" stop-opacity="0.01"/>
<stop offset="0.450441" stop-color="#242629" stop-opacity="0.01"/>
<stop offset="1" stop-color="white"/>
</linearGradient>
<linearGradient id="paint26_linear" x1="186.081" y1="198.425" x2="277.005" y2="190.996" gradientUnits="userSpaceOnUse">
<stop stop-color="#242629" stop-opacity="0.01"/>
<stop offset="0.450441" stop-color="#242629" stop-opacity="0.01"/>
<stop offset="1" stop-color="white"/>
</linearGradient>
<linearGradient id="paint27_linear" x1="192.816" y1="201.79" x2="283.004" y2="188.037" gradientUnits="userSpaceOnUse">
<stop stop-color="#242629" stop-opacity="0.01"/>
<stop offset="0.450441" stop-color="#242629" stop-opacity="0.01"/>
<stop offset="1" stop-color="white"/>
</linearGradient>
<linearGradient id="paint28_linear" x1="199.875" y1="204.563" x2="288.888" y2="184.552" gradientUnits="userSpaceOnUse">
<stop stop-color="#242629" stop-opacity="0.01"/>
<stop offset="0.450441" stop-color="#242629" stop-opacity="0.01"/>
<stop offset="1" stop-color="white"/>
</linearGradient>
<linearGradient id="paint29_linear" x1="207.218" y1="206.723" x2="294.621" y2="180.551" gradientUnits="userSpaceOnUse">
<stop stop-color="#242629" stop-opacity="0.01"/>
<stop offset="0.450441" stop-color="#242629" stop-opacity="0.01"/>
<stop offset="1" stop-color="white"/>
</linearGradient>
<linearGradient id="paint30_linear" x1="214.8" y1="208.252" x2="300.167" y2="176.046" gradientUnits="userSpaceOnUse">
<stop stop-color="#242629" stop-opacity="0.01"/>
<stop offset="0.450441" stop-color="#242629" stop-opacity="0.01"/>
<stop offset="1" stop-color="white"/>
</linearGradient>
<linearGradient id="paint31_linear" x1="222.577" y1="209.135" x2="305.492" y2="171.052" gradientUnits="userSpaceOnUse">
<stop stop-color="#242629" stop-opacity="0.01"/>
<stop offset="0.450441" stop-color="#242629" stop-opacity="0.01"/>
<stop offset="1" stop-color="white"/>
</linearGradient>
<linearGradient id="paint32_linear" x1="230.504" y1="209.36" x2="310.562" y2="165.585" gradientUnits="userSpaceOnUse">
<stop stop-color="#242629" stop-opacity="0.01"/>
<stop offset="0.450441" stop-color="#242629" stop-opacity="0.01"/>
<stop offset="1" stop-color="white"/>
</linearGradient>
<linearGradient id="paint33_linear" x1="238.534" y1="208.917" x2="315.346" y2="159.664" gradientUnits="userSpaceOnUse">
<stop stop-color="#242629" stop-opacity="0.01"/>
<stop offset="0.450441" stop-color="#242629" stop-opacity="0.01"/>
<stop offset="1" stop-color="white"/>
</linearGradient>
<linearGradient id="paint34_linear" x1="246.621" y1="207.801" x2="319.811" y2="153.31" gradientUnits="userSpaceOnUse">
<stop stop-color="#242629" stop-opacity="0.01"/>
<stop offset="0.450441" stop-color="#242629" stop-opacity="0.01"/>
<stop offset="1" stop-color="white"/>
</linearGradient>
<linearGradient id="paint35_linear" x1="254.384" y1="205.941" x2="323.463" y2="146.574" gradientUnits="userSpaceOnUse">
<stop stop-color="#242629" stop-opacity="0.01"/>
<stop offset="0.450441" stop-color="#242629" stop-opacity="0.01"/>
<stop offset="1" stop-color="white"/>
</linearGradient>
<linearGradient id="paint36_linear" x1="67.972" y1="113.767" x2="67.9577" y2="147.767" gradientUnits="userSpaceOnUse">
<stop stop-color="#00AEFF"/>
<stop offset="1" stop-color="#0076FF"/>
</linearGradient>
<linearGradient id="paint37_linear" x1="67.9721" y1="113.767" x2="67.9577" y2="147.767" gradientUnits="userSpaceOnUse">
<stop stop-color="#00AEFF"/>
<stop offset="1" stop-color="#0076FF"/>
</linearGradient>
<linearGradient id="paint38_linear" x1="67.9721" y1="113.767" x2="67.9577" y2="147.767" gradientUnits="userSpaceOnUse">
<stop stop-color="#00AEFF"/>
<stop offset="1" stop-color="#0076FF"/>
</linearGradient>
<linearGradient id="paint39_linear" x1="68.2055" y1="114.116" x2="67.9734" y2="147.651" gradientUnits="userSpaceOnUse">
<stop stop-color="#00AEFF"/>
<stop offset="1" stop-color="#0076FF"/>
</linearGradient>
<linearGradient id="paint40_linear" x1="68.6727" y1="113.883" x2="68.6727" y2="147.883" gradientUnits="userSpaceOnUse">
<stop stop-color="#00AEFF"/>
<stop offset="1" stop-color="#0076FF"/>
</linearGradient>
</defs>
<g opacity="0.9" filter="url(#filter0_f)">
<rect x="20" y="90" width="335" height="90" rx="18" fill="url(#paint0_radial)"/>
</g>
<rect x="20" width="335" height="180" rx="20" fill="url(#paint1_radial)"/>
<mask id="mask0" mask-type="alpha" maskUnits="userSpaceOnUse" x="20" y="0" width="335" height="180">
<rect x="20" width="335" height="180" rx="20" fill="white"/>
</mask>
<g mask="url(#mask0)">
<path fill-rule="evenodd" clip-rule="evenodd" d="M295.556 52.7053C209.206 57.2591 140.767 90.95 142.694 127.956C144.622 164.962 216.185 191.27 302.535 186.716C388.885 182.162 457.324 148.471 455.397 111.465C453.469 74.4592 381.906 48.1515 295.556 52.7053Z" stroke="url(#paint2_linear)" stroke-width="0.5"/>
<path fill-rule="evenodd" clip-rule="evenodd" d="M289.309 51.534C203.483 62.1 137.558 100.481 142.062 137.261C146.566 174.041 219.793 195.291 305.62 184.725C391.446 174.159 457.371 135.778 452.867 98.9982C448.363 62.2184 375.136 40.968 289.309 51.534Z" stroke="url(#paint3_linear)" stroke-width="0.5"/>
<path fill-rule="evenodd" clip-rule="evenodd" d="M283.102 50.6872C198.218 67.2139 135.128 110.099 142.187 146.473C149.246 182.847 223.781 198.937 308.665 182.41C393.549 165.883 456.639 122.999 449.58 86.6243C442.521 50.2501 367.986 34.1604 283.102 50.6872Z" stroke="url(#paint4_linear)" stroke-width="0.5"/>
<path fill-rule="evenodd" clip-rule="evenodd" d="M276.958 50.1612C193.429 72.5681 133.482 119.747 143.061 155.539C152.64 191.331 228.119 202.181 311.648 179.774C395.176 157.367 455.124 110.188 445.544 74.3963C435.965 38.6047 360.486 27.7543 276.958 50.1612Z" stroke="url(#paint5_linear)" stroke-width="0.5"/>
<path fill-rule="evenodd" clip-rule="evenodd" d="M270.897 49.951C189.132 78.1289 132.618 129.373 144.671 164.407C156.725 199.442 232.78 205 314.546 176.822C396.312 148.644 452.825 97.4004 440.772 62.3659C428.718 27.3314 352.663 21.773 270.897 49.951Z" stroke="url(#paint6_linear)" stroke-width="0.5"/>
<path fill-rule="evenodd" clip-rule="evenodd" d="M264.943 50.0498C185.339 83.8615 132.535 138.92 147.003 173.027C161.472 207.134 237.733 207.373 317.338 173.561C396.942 139.75 449.746 84.6909 435.278 50.5841C420.809 16.4773 344.548 16.2381 264.943 50.0498Z" stroke="url(#paint7_linear)" stroke-width="0.5"/>
<path fill-rule="evenodd" clip-rule="evenodd" d="M259.117 50.4495C182.061 89.7302 133.225 148.336 150.037 181.349C166.85 214.362 242.946 209.28 320.002 170C397.058 130.719 445.895 72.1134 429.082 39.1005C412.269 6.08759 336.173 11.1687 259.117 50.4495Z" stroke="url(#paint8_linear)" stroke-width="0.5"/>
<path fill-rule="evenodd" clip-rule="evenodd" d="M253.439 51.1404C179.307 95.6988 134.676 157.566 153.751 189.324C172.827 221.082 248.386 210.705 322.518 166.147C396.65 121.588 441.281 59.7216 422.206 27.9634C403.13 -3.79471 327.571 6.58196 253.439 51.1404Z" stroke="url(#paint9_linear)" stroke-width="0.5"/>
<path fill-rule="evenodd" clip-rule="evenodd" d="M247.93 52.1114C177.083 101.73 136.874 166.557 158.119 196.906C179.364 227.254 254.019 211.633 324.865 162.014C395.712 112.395 435.921 47.5681 414.676 17.2194C393.431 -13.1292 318.776 2.49243 247.93 52.1114Z" stroke="url(#paint10_linear)" stroke-width="0.5"/>
<path fill-rule="evenodd" clip-rule="evenodd" d="M242.607 53.3502C175.391 107.788 139.8 175.259 163.112 204.05C186.423 232.841 259.81 212.051 327.026 157.613C394.241 103.175 429.833 35.7045 406.521 6.91315C383.21 -21.8782 309.823 -1.08764 242.607 53.3502Z" stroke="url(#paint11_linear)" stroke-width="0.5"/>
<path fill-rule="evenodd" clip-rule="evenodd" d="M237.491 54.843C174.233 113.834 143.433 183.62 168.697 210.714C193.962 237.808 265.723 211.95 328.98 152.958C392.238 93.9667 423.038 24.1809 397.774 -2.91291C372.509 -30.0067 300.748 -4.14851 237.491 54.843Z" stroke="url(#paint12_linear)" stroke-width="0.5"/>
<path fill-rule="evenodd" clip-rule="evenodd" d="M232.597 56.5747C173.605 119.832 147.747 191.594 174.841 216.858C201.935 242.122 271.721 211.322 330.712 148.064C389.704 84.8068 415.562 13.0456 388.468 -12.2186C361.374 -37.4828 291.588 -6.68298 232.597 56.5747Z" stroke="url(#paint13_linear)" stroke-width="0.5"/>
<path fill-rule="evenodd" clip-rule="evenodd" d="M227.942 58.5293C173.504 125.745 152.714 199.132 181.505 222.443C210.296 245.755 277.767 210.164 332.205 142.948C386.643 75.7321 407.433 2.34528 378.642 -20.9662C349.851 -44.2778 282.38 -8.68639 227.942 58.5293Z" stroke="url(#paint14_linear)" stroke-width="0.5"/>
<path fill-rule="evenodd" clip-rule="evenodd" d="M223.541 60.6896C173.922 131.536 158.301 206.191 188.649 227.436C218.998 248.681 283.825 208.472 333.444 137.626C383.063 66.7792 398.684 -7.87572 368.336 -29.121C337.987 -50.3663 273.16 -10.1567 223.541 60.6896Z" stroke="url(#paint15_linear)" stroke-width="0.5"/>
<path fill-rule="evenodd" clip-rule="evenodd" d="M219.408 63.0372C174.85 137.169 164.473 212.728 196.231 231.804C227.989 250.879 289.856 206.248 334.415 132.116C378.973 57.9842 389.35 -17.5752 357.592 -36.6508C325.833 -55.7263 263.967 -11.0945 219.408 63.0372Z" stroke="url(#paint16_linear)" stroke-width="0.5"/>
<path fill-rule="evenodd" clip-rule="evenodd" d="M215.555 65.5532C176.275 142.609 171.193 218.705 204.206 235.518C237.219 252.331 295.825 203.494 335.106 126.438C374.386 49.382 379.467 -26.7137 346.455 -43.5266C313.442 -60.3394 254.836 -11.5028 215.555 65.5532Z" stroke="url(#paint17_linear)" stroke-width="0.5"/>
<path fill-rule="evenodd" clip-rule="evenodd" d="M211.994 68.2174C178.182 147.822 178.421 224.083 212.528 238.552C246.635 253.02 301.694 200.216 335.505 120.612C369.317 41.0069 369.078 -35.2544 334.971 -49.7227C300.864 -64.1909 245.805 -11.3874 211.994 68.2174Z" stroke="url(#paint18_linear)" stroke-width="0.5"/>
<path fill-rule="evenodd" clip-rule="evenodd" d="M208.733 71.0093C180.555 152.775 186.113 228.83 221.148 240.884C256.182 252.937 307.426 196.424 335.604 114.658C363.782 32.892 358.224 -43.1634 323.189 -55.2165C288.155 -67.2697 236.911 -10.7565 208.733 71.0093Z" stroke="url(#paint19_linear)" stroke-width="0.5"/>
<path fill-rule="evenodd" clip-rule="evenodd" d="M205.781 73.9075C183.374 157.436 194.225 232.915 230.016 242.494C265.808 252.074 312.987 192.126 335.394 108.598C357.801 25.0691 346.95 -50.4097 311.159 -59.9891C275.367 -69.5685 228.188 -9.62093 205.781 73.9075Z" stroke="url(#paint20_linear)" stroke-width="0.5"/>
<path fill-rule="evenodd" clip-rule="evenodd" d="M203.145 76.8902C186.618 161.774 202.708 236.309 239.082 243.368C275.456 250.427 318.341 187.337 334.868 102.453C351.395 17.5686 335.305 -56.966 298.931 -64.0249C262.556 -71.0838 219.672 -7.99394 203.145 76.8902Z" stroke="url(#paint21_linear)" stroke-width="0.5"/>
<path fill-rule="evenodd" clip-rule="evenodd" d="M200.83 79.9352C190.264 165.762 211.514 238.989 248.294 243.493C285.074 247.997 323.455 182.072 334.021 96.2458C344.587 10.4195 323.337 -62.8078 286.557 -67.3118C249.777 -71.8159 211.396 -5.89113 200.83 79.9352Z" stroke="url(#paint22_linear)" stroke-width="0.5"/>
<path fill-rule="evenodd" clip-rule="evenodd" d="M198.839 83.0199C194.285 169.37 220.593 240.933 257.599 242.861C294.605 244.788 328.296 176.349 332.85 89.9991C337.404 3.64871 311.096 -67.9144 274.09 -69.8417C237.084 -71.7689 203.393 -3.33045 198.839 83.0199Z" stroke="url(#paint23_linear)" stroke-width="0.5"/>
<path fill-rule="evenodd" clip-rule="evenodd" d="M197.175 86.1216C198.655 172.575 229.892 242.126 266.944 241.467C303.996 240.808 332.833 170.189 331.352 83.7354C329.871 -2.71835 298.635 -72.2688 261.583 -71.6098C224.531 -70.9509 195.694 -0.332083 197.175 86.1216Z" stroke="url(#paint24_linear)" stroke-width="0.5"/>
<path fill-rule="evenodd" clip-rule="evenodd" d="M195.837 89.2176C203.345 175.353 239.359 242.552 276.276 239.31C313.194 236.068 337.035 163.613 329.527 77.4775C322.02 -8.65841 286.006 -75.8572 249.088 -72.6153C212.171 -69.3734 188.33 3.08167 195.837 89.2176Z" stroke="url(#paint25_linear)" stroke-width="0.5"/>
<path fill-rule="evenodd" clip-rule="evenodd" d="M194.826 92.2848C208.324 177.683 248.939 242.203 285.542 236.394C322.145 230.585 340.876 156.647 327.377 71.2481C313.879 -14.1502 273.264 -78.6701 236.661 -72.8609C200.057 -67.0518 181.327 6.88647 194.826 92.2848Z" stroke="url(#paint26_linear)" stroke-width="0.5"/>
<path fill-rule="evenodd" clip-rule="evenodd" d="M194.137 95.3009C213.56 179.546 258.579 241.072 294.689 232.724C330.8 224.376 344.327 149.315 324.904 65.0701C305.481 -19.1747 260.462 -80.7013 224.352 -72.3533C188.241 -64.0052 174.714 11.0561 194.137 95.3009Z" stroke="url(#paint27_linear)" stroke-width="0.5"/>
<path fill-rule="evenodd" clip-rule="evenodd" d="M193.766 98.2433C219.02 180.924 268.223 239.158 303.665 228.311C339.106 217.465 347.366 141.647 322.112 58.9657C296.859 -23.7152 247.656 -81.9487 212.214 -71.1024C176.772 -60.2562 168.513 15.5625 193.766 98.2433Z" stroke="url(#paint28_linear)" stroke-width="0.5"/>
<path fill-rule="evenodd" clip-rule="evenodd" d="M193.709 101.09C224.669 181.804 277.817 236.461 312.417 223.169C347.018 209.878 349.969 133.671 319.008 52.9569C288.048 -27.7571 234.9 -82.4138 200.299 -69.1222C165.699 -55.8306 162.748 20.376 193.709 101.09Z" stroke="url(#paint29_linear)" stroke-width="0.5"/>
<path fill-rule="evenodd" clip-rule="evenodd" d="M193.956 103.82C230.473 182.174 287.306 232.987 320.897 217.315C354.488 201.643 352.115 125.419 315.599 47.0654C279.082 -31.2886 222.248 -82.1023 188.658 -66.43C155.067 -50.7578 157.439 25.4655 193.956 103.82Z" stroke="url(#paint30_linear)" stroke-width="0.5"/>
<path fill-rule="evenodd" clip-rule="evenodd" d="M194.5 106.411C236.395 182.023 296.637 228.746 329.055 210.77C361.472 192.793 353.788 116.924 311.893 41.3122C269.997 -34.3001 209.755 -81.0231 177.338 -63.0466C144.921 -45.0702 152.605 30.7985 194.5 106.411Z" stroke="url(#paint31_linear)" stroke-width="0.5"/>
<path fill-rule="evenodd" clip-rule="evenodd" d="M195.33 108.843C242.399 181.346 305.757 223.75 336.842 203.557C367.928 183.364 354.971 108.22 307.901 35.7175C260.831 -36.7846 197.474 -79.1894 166.388 -58.9963C135.303 -38.8031 148.26 36.3413 195.33 108.843Z" stroke="url(#paint32_linear)" stroke-width="0.5"/>
<path fill-rule="evenodd" clip-rule="evenodd" d="M196.434 111.098C248.448 180.137 314.612 218.017 344.215 195.705C373.818 173.394 355.65 99.3397 303.635 30.301C251.62 -38.7378 185.456 -76.6178 155.854 -54.3063C126.251 -31.9948 144.419 42.0592 196.434 111.098Z" stroke="url(#paint33_linear)" stroke-width="0.5"/>
<path fill-rule="evenodd" clip-rule="evenodd" d="M197.799 113.156C254.505 178.395 323.153 211.565 351.129 187.244C379.105 162.923 355.814 90.3203 299.108 25.0812C242.402 -40.1578 173.753 -73.3284 145.778 -49.0073C117.802 -24.6862 141.093 47.9166 197.799 113.156Z" stroke="url(#paint34_linear)" stroke-width="0.5"/>
<path fill-rule="evenodd" clip-rule="evenodd" d="M199.05 114.967C260.167 176.084 330.923 204.418 357.088 178.253C383.253 152.088 354.919 81.3318 293.802 20.2148C232.685 -40.9023 161.929 -69.2364 135.764 -43.0713C109.599 -16.9061 137.933 53.8501 199.05 114.967Z" stroke="url(#paint35_linear)" stroke-width="0.5"/>
</g>
<path d="M56.856 76.2158C58.8047 76.2158 60.252 75.1304 60.5566 73.4546V73.4419H59.4014L59.3887 73.4546C59.103 74.5083 58.1318 75.1621 56.856 75.1621C55.0913 75.1621 53.9868 73.7212 53.9868 71.4297V71.417C53.9868 69.1255 55.0913 67.6782 56.8496 67.6782C58.1128 67.6782 59.0903 68.4209 59.395 69.5952L59.4014 69.6079H60.5503L60.5566 69.5952C60.2837 67.8369 58.7793 66.6245 56.8496 66.6245C54.3613 66.6245 52.8125 68.4653 52.8125 71.417V71.4297C52.8125 74.375 54.3677 76.2158 56.856 76.2158ZM65.127 76.1206C66.7393 76.1206 67.7168 75.2065 67.9517 74.2798L67.9644 74.229H66.8599L66.8345 74.2861C66.6504 74.6987 66.0791 75.1367 65.1523 75.1367C63.9336 75.1367 63.1528 74.3115 63.1211 72.896H68.0469V72.4644C68.0469 70.4204 66.917 69.0366 65.0571 69.0366C63.1973 69.0366 61.9912 70.4839 61.9912 72.5977V72.604C61.9912 74.7495 63.1719 76.1206 65.127 76.1206ZM65.0508 70.0205C66.0601 70.0205 66.8091 70.6616 66.9233 72.0137H63.1401C63.2607 70.7124 64.0352 70.0205 65.0508 70.0205ZM69.7607 76H70.8652V71.7598C70.8652 70.7568 71.6143 70.0903 72.668 70.0903C72.9092 70.0903 73.1187 70.1157 73.3472 70.1538V69.0811C73.2393 69.062 73.0044 69.0366 72.7949 69.0366C71.8682 69.0366 71.2271 69.4556 70.9668 70.1729H70.8652V69.1572H69.7607V76ZM77.5239 76.0508C77.7397 76.0508 77.9492 76.0254 78.165 75.9873V75.0479C77.9619 75.0669 77.854 75.0732 77.6572 75.0732C76.9463 75.0732 76.667 74.7495 76.667 73.9434V70.0713H78.165V69.1572H76.667V67.3862H75.5244V69.1572H74.4453V70.0713H75.5244V74.2227C75.5244 75.5303 76.1147 76.0508 77.5239 76.0508ZM80.3994 67.8369C80.8184 67.8369 81.1611 67.4941 81.1611 67.0752C81.1611 66.6562 80.8184 66.3135 80.3994 66.3135C79.9805 66.3135 79.6377 66.6562 79.6377 67.0752C79.6377 67.4941 79.9805 67.8369 80.3994 67.8369ZM79.8408 76H80.9453V69.1572H79.8408V76ZM83.4844 76H84.5889V70.0713H86.144V69.1572H84.5889V68.4272C84.5889 67.6782 84.9062 67.291 85.6934 67.291C85.8901 67.291 86.0742 67.2974 86.2075 67.3228V66.4404C85.979 66.396 85.7378 66.377 85.4712 66.377C84.1699 66.377 83.4844 67.0308 83.4844 68.3955V69.1572H82.3481V70.0713H83.4844V76ZM88.3213 67.8369C88.7402 67.8369 89.083 67.4941 89.083 67.0752C89.083 66.6562 88.7402 66.3135 88.3213 66.3135C87.9023 66.3135 87.5596 66.6562 87.5596 67.0752C87.5596 67.4941 87.9023 67.8369 88.3213 67.8369ZM87.7627 76H88.8672V69.1572H87.7627V76ZM93.7422 76.1206C95.3545 76.1206 96.332 75.2065 96.5669 74.2798L96.5796 74.229H95.4751L95.4497 74.2861C95.2656 74.6987 94.6943 75.1367 93.7676 75.1367C92.5488 75.1367 91.7681 74.3115 91.7363 72.896H96.6621V72.4644C96.6621 70.4204 95.5322 69.0366 93.6724 69.0366C91.8125 69.0366 90.6064 70.4839 90.6064 72.5977V72.604C90.6064 74.7495 91.7871 76.1206 93.7422 76.1206ZM93.666 70.0205C94.6753 70.0205 95.4243 70.6616 95.5386 72.0137H91.7554C91.876 70.7124 92.6504 70.0205 93.666 70.0205ZM100.902 76.1206C101.854 76.1206 102.616 75.6699 103.035 74.9082H103.137V76H104.241V66.4404H103.137V70.2363H103.035C102.661 69.5063 101.842 69.0366 100.902 69.0366C99.1631 69.0366 98.0332 70.4268 98.0332 72.5723V72.585C98.0332 74.7178 99.1694 76.1206 100.902 76.1206ZM101.156 75.1431C99.9058 75.1431 99.1631 74.1782 99.1631 72.585V72.5723C99.1631 70.979 99.9058 70.0142 101.156 70.0142C102.4 70.0142 103.162 70.9917 103.162 72.5723V72.585C103.162 74.1655 102.4 75.1431 101.156 75.1431ZM113.42 76.1206C115.153 76.1206 116.289 74.7178 116.289 72.585V72.5723C116.289 70.4268 115.159 69.0366 113.42 69.0366C112.48 69.0366 111.662 69.5063 111.287 70.2363H111.186V66.4404H110.081V76H111.186V74.9082H111.287C111.706 75.6699 112.468 76.1206 113.42 76.1206ZM113.166 75.1431C111.922 75.1431 111.16 74.1655 111.16 72.585V72.5723C111.16 70.9917 111.922 70.0142 113.166 70.0142C114.417 70.0142 115.159 70.979 115.159 72.5723V72.585C115.159 74.1782 114.417 75.1431 113.166 75.1431ZM118.333 78.3994C119.545 78.3994 120.11 77.9551 120.675 76.4189L123.348 69.1572H122.186L120.313 74.7876H120.212L118.333 69.1572H117.152L119.685 76.0063L119.558 76.4126C119.311 77.1997 118.93 77.4854 118.301 77.4854C118.149 77.4854 117.978 77.479 117.844 77.4536V78.3613C117.997 78.3867 118.187 78.3994 118.333 78.3994ZM130.565 76.2158C132.26 76.2158 133.263 75.1875 133.263 73.4546V66.8403H132.12V73.4419C132.12 74.5591 131.574 75.1621 130.559 75.1621C129.651 75.1621 129.2 74.5845 129.13 73.8926L129.124 73.8291H127.981L127.988 73.918C128.083 75.2319 128.978 76.2158 130.565 76.2158ZM138.271 76.1206C140.22 76.1206 141.426 74.7749 141.426 72.585V72.5723C141.426 70.376 140.22 69.0366 138.271 69.0366C136.322 69.0366 135.116 70.376 135.116 72.5723V72.585C135.116 74.7749 136.322 76.1206 138.271 76.1206ZM138.271 75.1431C136.976 75.1431 136.246 74.1973 136.246 72.585V72.5723C136.246 70.9536 136.976 70.0142 138.271 70.0142C139.566 70.0142 140.296 70.9536 140.296 72.5723V72.585C140.296 74.1973 139.566 75.1431 138.271 75.1431ZM143.203 76H144.308V71.9502C144.308 70.7505 145 70.0142 146.091 70.0142C147.183 70.0142 147.691 70.6045 147.691 71.8359V76H148.795V71.5693C148.795 69.9443 147.938 69.0366 146.402 69.0366C145.393 69.0366 144.752 69.4619 144.409 70.1855H144.308V66.4404H143.203V76ZM150.795 76H151.899V71.9502C151.899 70.7505 152.591 70.0142 153.683 70.0142C154.775 70.0142 155.283 70.6045 155.283 71.8359V76H156.387V71.5693C156.387 69.9443 155.53 69.0366 153.994 69.0366C152.985 69.0366 152.344 69.4619 152.001 70.1855H151.899V69.1572H150.795V76ZM162.183 76H165.325C168.048 76 169.647 74.3052 169.647 71.4233V71.4106C169.647 68.5352 168.042 66.8403 165.325 66.8403H162.183V76ZM163.325 74.9717V67.8687H165.249C167.28 67.8687 168.479 69.189 168.479 71.4233V71.436C168.479 73.6641 167.292 74.9717 165.249 74.9717H163.325ZM174.3 76.1206C176.249 76.1206 177.455 74.7749 177.455 72.585V72.5723C177.455 70.376 176.249 69.0366 174.3 69.0366C172.352 69.0366 171.146 70.376 171.146 72.5723V72.585C171.146 74.7749 172.352 76.1206 174.3 76.1206ZM174.3 75.1431C173.005 75.1431 172.275 74.1973 172.275 72.585V72.5723C172.275 70.9536 173.005 70.0142 174.3 70.0142C175.595 70.0142 176.325 70.9536 176.325 72.5723V72.585C176.325 74.1973 175.595 75.1431 174.3 75.1431ZM181.962 76.1206C183.574 76.1206 184.552 75.2065 184.787 74.2798L184.799 74.229H183.695L183.669 74.2861C183.485 74.6987 182.914 75.1367 181.987 75.1367C180.769 75.1367 179.988 74.3115 179.956 72.896H184.882V72.4644C184.882 70.4204 183.752 69.0366 181.892 69.0366C180.032 69.0366 178.826 70.4839 178.826 72.5977V72.604C178.826 74.7495 180.007 76.1206 181.962 76.1206ZM181.886 70.0205C182.895 70.0205 183.644 70.6616 183.758 72.0137H179.975C180.096 70.7124 180.87 70.0205 181.886 70.0205Z" fill="white" fill-opacity="0.9"/>
<path d="M55.1689 39.3574C56.1357 39.3574 56.9307 38.584 56.9307 37.6172C56.9307 36.6396 56.1357 35.8662 55.1689 35.8662C54.2021 35.8662 53.3965 36.6396 53.3965 37.6172C53.3965 38.584 54.2021 39.3574 55.1689 39.3574ZM53.5898 53H56.7266V41.1729H53.5898V53ZM66.9746 53.3975C71.5508 53.3975 74.4297 50.2607 74.4297 45.2549V45.2334C74.4297 40.2275 71.54 37.1016 66.9746 37.1016C62.4092 37.1016 59.5088 40.2168 59.5088 45.2334V45.2549C59.5088 50.2607 62.3662 53.3975 66.9746 53.3975ZM66.9746 50.6475C64.418 50.6475 62.8174 48.5312 62.8174 45.2549V45.2334C62.8174 41.9463 64.4502 39.8516 66.9746 39.8516C69.4883 39.8516 71.1211 41.9463 71.1211 45.2334V45.2549C71.1211 48.5312 69.499 50.6475 66.9746 50.6475ZM83.0557 53.3975C86.9229 53.3975 89.3076 51.4531 89.3076 48.3809V48.3701C89.3076 45.9531 87.8789 44.6426 84.6025 43.9658L82.959 43.6328C81.1328 43.2568 80.3809 42.6553 80.3809 41.6455V41.6348C80.3809 40.4746 81.4443 39.7441 83.0449 39.7334C84.6777 39.7334 85.752 40.5068 85.9346 41.6133L85.9561 41.7422H89.0068L88.9961 41.6025C88.792 39.0137 86.665 37.1016 83.0449 37.1016C79.6074 37.1016 77.1367 39.0029 77.1367 41.8818V41.8926C77.1367 44.2451 78.5225 45.749 81.7451 46.4043L83.3779 46.7373C85.3008 47.1348 86.0635 47.7041 86.0635 48.7246V48.7354C86.0635 49.9277 84.8711 50.7549 83.1416 50.7549C81.3262 50.7549 80.0693 49.9707 79.9512 48.8105L79.9404 48.7031H76.8145L76.8252 48.875C77.0078 51.625 79.3496 53.3975 83.0557 53.3975ZM101.532 53H104.776V37.499H101.543L97.5361 40.2812V43.2031L101.339 40.5605H101.532V53ZM114.788 53.3438C118.408 53.3438 120.825 51.4424 120.825 48.6279V48.6064C120.825 46.501 119.321 45.1689 117.012 44.9541V44.8896C118.827 44.5137 120.245 43.2568 120.245 41.3232V41.3018C120.245 38.8311 118.097 37.1553 114.767 37.1553C111.512 37.1553 109.331 38.96 109.105 41.7314L109.095 41.8604H112.081L112.092 41.7637C112.221 40.4746 113.241 39.6475 114.767 39.6475C116.292 39.6475 117.184 40.4424 117.184 41.7314V41.7529C117.184 43.0098 116.131 43.8691 114.498 43.8691H112.769V46.1787H114.541C116.421 46.1787 117.527 46.9951 117.527 48.4775V48.499C117.527 49.8096 116.442 50.7334 114.788 50.7334C113.112 50.7334 112.006 49.874 111.866 48.6709L111.855 48.5527H108.751L108.762 48.6924C108.977 51.4639 111.286 53.3438 114.788 53.3438ZM129.698 53H135.8C140.44 53 143.072 50.1641 143.072 45.1582V45.1367C143.072 40.2812 140.408 37.499 135.8 37.499H129.698V53ZM132.942 50.3252V40.1738H135.284C138.099 40.1738 139.764 42 139.764 45.1904V45.2119C139.764 48.5205 138.152 50.3252 135.284 50.3252H132.942ZM151.043 53.2471C154.502 53.2471 156.027 51.249 156.393 49.7666L156.414 49.6592H153.492L153.46 49.7236C153.245 50.1748 152.482 50.9053 151.107 50.9053C149.442 50.9053 148.4 49.7773 148.368 47.833H156.511V46.8555C156.511 43.2783 154.362 40.915 150.914 40.915C147.466 40.915 145.264 43.332 145.264 47.0918V47.1025C145.264 50.8945 147.444 53.2471 151.043 53.2471ZM150.968 43.2676C152.332 43.2676 153.31 44.1484 153.503 45.8672H148.4C148.594 44.1914 149.604 43.2676 150.968 43.2676ZM163.783 53.2471C166.812 53.2471 168.972 51.7217 168.972 49.3799V49.3691C168.972 47.6182 167.865 46.6299 165.502 46.125L163.536 45.7061C162.312 45.4375 161.871 45.0723 161.871 44.4385V44.4277C161.871 43.6328 162.645 43.1279 163.729 43.1279C164.9 43.1279 165.599 43.7188 165.771 44.3525L165.781 44.4062H168.692V44.3633C168.563 42.4619 166.845 40.915 163.74 40.915C160.786 40.915 158.81 42.3975 158.81 44.6211V44.6318C158.81 46.4043 159.927 47.5107 162.183 47.9941L164.159 48.4131C165.362 48.6816 165.835 49.0791 165.835 49.7129V49.7344C165.835 50.5186 165.019 51.0342 163.815 51.0342C162.58 51.0342 161.86 50.5078 161.613 49.7773L161.592 49.7344H158.509L158.52 49.7773C158.745 51.8076 160.571 53.2471 163.783 53.2471ZM173.14 39.3574C174.106 39.3574 174.901 38.584 174.901 37.6172C174.901 36.6396 174.106 35.8662 173.14 35.8662C172.173 35.8662 171.367 36.6396 171.367 37.6172C171.367 38.584 172.173 39.3574 173.14 39.3574ZM171.561 53H174.697V41.1729H171.561V53ZM183.076 57.1572C186.653 57.1572 188.92 55.4062 188.92 52.6348V41.1729H185.783V43.1064H185.633C184.999 41.7744 183.731 40.9795 182.109 40.9795C179.08 40.9795 177.243 43.3213 177.243 46.8018V46.8232C177.243 50.1855 179.08 52.4844 182.056 52.4844C183.699 52.4844 184.945 51.8076 185.601 50.5615H185.794V52.7637C185.794 54.1387 184.816 54.9229 183.141 54.9229C181.744 54.9229 180.928 54.4502 180.756 53.7627L180.745 53.7197H177.641V53.7734C177.898 55.7822 179.8 57.1572 183.076 57.1572ZM183.119 50.0781C181.422 50.0781 180.455 48.7568 180.455 46.8125V46.791C180.455 44.8467 181.433 43.5254 183.119 43.5254C184.806 43.5254 185.826 44.8467 185.826 46.791V46.8125C185.826 48.7568 184.816 50.0781 183.119 50.0781ZM192.057 53H195.193V46.1572C195.193 44.5566 196.074 43.5146 197.524 43.5146C199.007 43.5146 199.694 44.3955 199.694 46.0605V53H202.831V45.3516C202.831 42.5264 201.413 40.915 198.781 40.915C197.095 40.915 195.924 41.7207 195.387 42.999H195.193V41.1729H192.057V53Z" fill="white"/>
<mask id="mask1" mask-type="alpha" maskUnits="userSpaceOnUse" x="52" y="134" width="32" height="14">
<rect x="52" y="134.726" width="32" height="13.274" fill="#C4C4C4"/>
</mask>
<g mask="url(#mask1)">
<path d="M82.7935 137.426L70.0756 130.12C68.8736 129.424 66.9349 129.424 65.7329 130.12L53.0926 137.426C51.8906 138.122 51.9294 139.243 53.0926 139.939L65.8105 147.245C67.0125 147.941 68.9511 147.941 70.1531 147.245L82.7935 139.939C84.0342 139.243 83.9955 138.122 82.7935 137.426Z" stroke="url(#paint36_linear)" stroke-width="0.6"/>
</g>
<mask id="mask2" mask-type="alpha" maskUnits="userSpaceOnUse" x="55" y="134" width="3" height="2">
<rect x="55.3167" y="134.493" width="2.56934" height="1.39726" fill="#C4C4C4"/>
</mask>
<g mask="url(#mask2)">
<path d="M82.7935 137.426L70.0756 130.12C68.8737 129.424 66.935 129.424 65.733 130.12L53.0926 137.426C51.8907 138.122 51.9294 139.243 53.0926 139.939L65.8105 147.245C67.0125 147.941 68.9512 147.941 70.1532 147.245L82.7935 139.939C84.0343 139.243 83.9955 138.122 82.7935 137.426Z" stroke="url(#paint37_linear)" stroke-width="0.6"/>
</g>
<mask id="mask3" mask-type="alpha" maskUnits="userSpaceOnUse" x="77" y="134" width="2" height="1">
<rect x="77.927" y="134.493" width="0.934306" height="0.465753" fill="#C4C4C4"/>
</mask>
<g mask="url(#mask3)">
<path d="M82.7935 137.426L70.0756 130.12C68.8737 129.424 66.935 129.424 65.733 130.12L53.0926 137.426C51.8907 138.122 51.9294 139.243 53.0926 139.939L65.8105 147.245C67.0125 147.941 68.9512 147.941 70.1532 147.245L82.7935 139.939C84.0343 139.243 83.9955 138.122 82.7935 137.426Z" stroke="url(#paint38_linear)" stroke-width="0.6"/>
</g>
<path d="M80.7161 126.757C80.7161 133.793 74.9388 139.514 67.9207 139.514C60.9026 139.514 55.1252 133.754 55.1252 126.757C55.1252 119.76 60.9026 114 67.9207 114C74.9388 114 80.7161 119.721 80.7161 126.757Z" stroke="url(#paint39_linear)" stroke-width="0.6"/>
<path d="M70.9057 126.95C69.5486 126.95 69.3547 127.762 69.3547 128.38C69.3547 128.883 69.4323 129.424 69.5098 129.926C69.5874 130.429 69.6649 130.97 69.6649 131.511C69.6649 133.444 68.4629 134.14 66.8731 134.14H66.4854V133.096H66.7956C67.8813 133.096 68.3466 132.517 68.3466 131.434C68.3466 130.97 68.2691 130.545 68.2303 130.042C68.1527 129.579 68.0752 129.115 68.0752 128.573C68.0752 127.336 68.618 126.679 69.471 126.486V126.447C68.618 126.215 68.0752 125.597 68.0752 124.36C68.0752 123.857 68.1527 123.393 68.2303 122.891C68.2691 122.427 68.3466 121.963 68.3466 121.538C68.3466 120.494 67.9589 119.914 66.8344 119.875H66.4854V118.832H66.8731C68.5017 118.832 69.7037 119.566 69.7037 121.344C69.7037 121.886 69.6261 122.388 69.5486 122.929C69.471 123.471 69.3935 124.012 69.3935 124.553C69.3935 125.21 69.5874 125.983 70.9444 125.983V126.95H70.9057Z" stroke="url(#paint40_linear)" stroke-width="0.6"/>
</svg>
