<svg width="375" height="235" viewBox="0 0 375 235" fill="none" xmlns="http://www.w3.org/2000/svg">
<defs>
<filter id="filter0_f" x="-34.3656" y="35.6344" width="443.731" height="198.731" filterUnits="userSpaceOnUse" color-interpolation-filters="sRGB">
<feFlood flood-opacity="0" result="BackgroundImageFix"/>
<feBlend mode="normal" in="SourceGraphic" in2="BackgroundImageFix" result="shape"/>
<feGaussianBlur stdDeviation="27.1828" result="effect1_foregroundBlur"/>
</filter>
<radialGradient id="paint0_radial" cx="0" cy="0" r="1" gradientUnits="userSpaceOnUse" gradientTransform="translate(51.9737 103.585) rotate(12.3001) scale(279.535 60.9514)">
<stop stop-color="#FF9A8B"/>
<stop offset="0.461924" stop-color="#FF6A88"/>
<stop offset="1" stop-color="#FF99AC"/>
</radialGradient>
<radialGradient id="paint1_radial" cx="0" cy="0" r="1" gradientUnits="userSpaceOnUse" gradientTransform="translate(51.9737 27.1694) rotate(23.5608) scale(297.957 114.366)">
<stop stop-color="#FF9A8B"/>
<stop offset="0.461924" stop-color="#FF6A88"/>
<stop offset="1" stop-color="#FF99AC"/>
</radialGradient>
<linearGradient id="paint2_linear" x1="350.156" y1="166.093" x2="365.466" y2="40.286" gradientUnits="userSpaceOnUse">
<stop stop-color="white" stop-opacity="0.01"/>
<stop offset="1" stop-color="white"/>
</linearGradient>
<linearGradient id="paint3_linear" x1="351.399" y1="163.431" x2="357.894" y2="36.8679" gradientUnits="userSpaceOnUse">
<stop stop-color="white" stop-opacity="0.01"/>
<stop offset="1" stop-color="white"/>
</linearGradient>
<linearGradient id="paint4_linear" x1="352.56" y1="160.575" x2="350.208" y2="33.8722" gradientUnits="userSpaceOnUse">
<stop stop-color="white" stop-opacity="0.01"/>
<stop offset="1" stop-color="white"/>
</linearGradient>
<linearGradient id="paint5_linear" x1="353.625" y1="157.53" x2="342.439" y2="31.3057" gradientUnits="userSpaceOnUse">
<stop stop-color="white" stop-opacity="0.01"/>
<stop offset="1" stop-color="white"/>
</linearGradient>
<linearGradient id="paint6_linear" x1="354.581" y1="154.305" x2="334.617" y2="29.1731" gradientUnits="userSpaceOnUse">
<stop stop-color="white" stop-opacity="0.01"/>
<stop offset="1" stop-color="white"/>
</linearGradient>
<linearGradient id="paint7_linear" x1="355.417" y1="150.907" x2="326.772" y2="27.4769" gradientUnits="userSpaceOnUse">
<stop stop-color="white" stop-opacity="0.01"/>
<stop offset="1" stop-color="white"/>
</linearGradient>
<linearGradient id="paint8_linear" x1="356.12" y1="147.345" x2="318.934" y2="26.2176" gradientUnits="userSpaceOnUse">
<stop stop-color="white" stop-opacity="0.01"/>
<stop offset="1" stop-color="white"/>
</linearGradient>
<linearGradient id="paint9_linear" x1="356.679" y1="143.629" x2="311.134" y2="25.3936" gradientUnits="userSpaceOnUse">
<stop stop-color="white" stop-opacity="0.01"/>
<stop offset="1" stop-color="white"/>
</linearGradient>
<linearGradient id="paint10_linear" x1="357.083" y1="139.769" x2="303.403" y2="25.001" gradientUnits="userSpaceOnUse">
<stop stop-color="white" stop-opacity="0.01"/>
<stop offset="1" stop-color="white"/>
</linearGradient>
<linearGradient id="paint11_linear" x1="357.324" y1="135.777" x2="295.769" y2="25.0341" gradientUnits="userSpaceOnUse">
<stop stop-color="white" stop-opacity="0.01"/>
<stop offset="1" stop-color="white"/>
</linearGradient>
<linearGradient id="paint12_linear" x1="357.393" y1="131.663" x2="288.263" y2="25.4849" gradientUnits="userSpaceOnUse">
<stop stop-color="white" stop-opacity="0.01"/>
<stop offset="1" stop-color="white"/>
</linearGradient>
<linearGradient id="paint13_linear" x1="357.281" y1="127.441" x2="280.912" y2="26.3436" gradientUnits="userSpaceOnUse">
<stop stop-color="white" stop-opacity="0.01"/>
<stop offset="1" stop-color="white"/>
</linearGradient>
<linearGradient id="paint14_linear" x1="356.981" y1="123.123" x2="273.746" y2="27.5982" gradientUnits="userSpaceOnUse">
<stop stop-color="white" stop-opacity="0.01"/>
<stop offset="1" stop-color="white"/>
</linearGradient>
<linearGradient id="paint15_linear" x1="356.488" y1="118.722" x2="266.791" y2="29.235" gradientUnits="userSpaceOnUse">
<stop stop-color="white" stop-opacity="0.01"/>
<stop offset="1" stop-color="white"/>
</linearGradient>
<linearGradient id="paint16_linear" x1="355.795" y1="114.253" x2="260.074" y2="31.2385" gradientUnits="userSpaceOnUse">
<stop stop-color="white" stop-opacity="0.01"/>
<stop offset="1" stop-color="white"/>
</linearGradient>
<linearGradient id="paint17_linear" x1="354.899" y1="109.729" x2="253.618" y2="33.5911" gradientUnits="userSpaceOnUse">
<stop stop-color="white" stop-opacity="0.01"/>
<stop offset="1" stop-color="white"/>
</linearGradient>
<linearGradient id="paint18_linear" x1="353.796" y1="105.164" x2="247.449" y2="36.2738" gradientUnits="userSpaceOnUse">
<stop stop-color="white" stop-opacity="0.01"/>
<stop offset="1" stop-color="white"/>
</linearGradient>
<linearGradient id="paint19_linear" x1="352.484" y1="100.573" x2="241.587" y2="39.266" gradientUnits="userSpaceOnUse">
<stop stop-color="white" stop-opacity="0.01"/>
<stop offset="1" stop-color="white"/>
</linearGradient>
<linearGradient id="paint20_linear" x1="350.962" y1="95.9709" x2="236.055" y2="42.5455" gradientUnits="userSpaceOnUse">
<stop stop-color="white" stop-opacity="0.01"/>
<stop offset="1" stop-color="white"/>
</linearGradient>
<linearGradient id="paint21_linear" x1="349.229" y1="91.3719" x2="230.871" y2="46.0887" gradientUnits="userSpaceOnUse">
<stop stop-color="white" stop-opacity="0.01"/>
<stop offset="1" stop-color="white"/>
</linearGradient>
<linearGradient id="paint22_linear" x1="347.286" y1="86.7908" x2="226.053" y2="49.8708" gradientUnits="userSpaceOnUse">
<stop stop-color="white" stop-opacity="0.01"/>
<stop offset="1" stop-color="white"/>
</linearGradient>
<linearGradient id="paint23_linear" x1="345.134" y1="82.2422" x2="221.617" y2="53.8657" gradientUnits="userSpaceOnUse">
<stop stop-color="white" stop-opacity="0.01"/>
<stop offset="1" stop-color="white"/>
</linearGradient>
<linearGradient id="paint24_linear" x1="342.777" y1="77.7404" x2="217.577" y2="58.0464" gradientUnits="userSpaceOnUse">
<stop stop-color="white" stop-opacity="0.01"/>
<stop offset="1" stop-color="white"/>
</linearGradient>
<linearGradient id="paint25_linear" x1="340.219" y1="73.2998" x2="213.944" y2="62.3849" gradientUnits="userSpaceOnUse">
<stop stop-color="white" stop-opacity="0.01"/>
<stop offset="1" stop-color="white"/>
</linearGradient>
<linearGradient id="paint26_linear" x1="337.463" y1="68.9342" x2="210.729" y2="66.8523" gradientUnits="userSpaceOnUse">
<stop stop-color="white" stop-opacity="0.01"/>
<stop offset="1" stop-color="white"/>
</linearGradient>
<linearGradient id="paint27_linear" x1="334.515" y1="64.6572" x2="207.94" y2="71.4193" gradientUnits="userSpaceOnUse">
<stop stop-color="white" stop-opacity="0.01"/>
<stop offset="1" stop-color="white"/>
</linearGradient>
<linearGradient id="paint28_linear" x1="331.383" y1="60.4819" x2="205.583" y2="76.0559" gradientUnits="userSpaceOnUse">
<stop stop-color="white" stop-opacity="0.01"/>
<stop offset="1" stop-color="white"/>
</linearGradient>
<linearGradient id="paint29_linear" x1="328.074" y1="56.4211" x2="203.662" y2="80.7318" gradientUnits="userSpaceOnUse">
<stop stop-color="white" stop-opacity="0.01"/>
<stop offset="1" stop-color="white"/>
</linearGradient>
<linearGradient id="paint30_linear" x1="324.595" y1="52.4868" x2="202.178" y2="85.4165" gradientUnits="userSpaceOnUse">
<stop stop-color="white" stop-opacity="0.01"/>
<stop offset="1" stop-color="white"/>
</linearGradient>
<linearGradient id="paint31_linear" x1="320.957" y1="48.6905" x2="201.132" y2="90.0794" gradientUnits="userSpaceOnUse">
<stop stop-color="white" stop-opacity="0.01"/>
<stop offset="1" stop-color="white"/>
</linearGradient>
<linearGradient id="paint32_linear" x1="317.169" y1="45.0432" x2="200.52" y2="94.69" gradientUnits="userSpaceOnUse">
<stop stop-color="white" stop-opacity="0.01"/>
<stop offset="1" stop-color="white"/>
</linearGradient>
<linearGradient id="paint33_linear" x1="313.242" y1="41.5548" x2="200.338" y2="99.218" gradientUnits="userSpaceOnUse">
<stop stop-color="white" stop-opacity="0.01"/>
<stop offset="1" stop-color="white"/>
</linearGradient>
<linearGradient id="paint34_linear" x1="309.187" y1="38.2348" x2="200.58" y2="103.634" gradientUnits="userSpaceOnUse">
<stop stop-color="white" stop-opacity="0.01"/>
<stop offset="1" stop-color="white"/>
</linearGradient>
<linearGradient id="paint35_linear" x1="304.518" y1="35.1988" x2="200.939" y2="107.918" gradientUnits="userSpaceOnUse">
<stop stop-color="white" stop-opacity="0.01"/>
<stop offset="1" stop-color="white"/>
</linearGradient>
</defs>
<g opacity="0.9" filter="url(#filter0_f)">
<rect x="20" y="90" width="335" height="90" rx="18" fill="url(#paint0_radial)"/>
</g>
<rect x="20" width="335" height="180" rx="20" fill="url(#paint1_radial)"/>
<mask id="mask0" mask-type="alpha" maskUnits="userSpaceOnUse" x="20" y="0" width="335" height="180">
<rect x="20" width="335" height="180" rx="20" fill="white"/>
</mask>
<g mask="url(#mask0)">
<path fill-rule="evenodd" clip-rule="evenodd" d="M332.63 58.1143C246.28 62.6681 177.841 96.359 179.769 133.365C181.696 170.371 253.259 196.679 339.609 192.125C425.96 187.571 494.398 153.88 492.471 116.874C490.544 79.8682 418.98 53.5605 332.63 58.1143Z" stroke="url(#paint2_linear)" stroke-width="0.5"/>
<path fill-rule="evenodd" clip-rule="evenodd" d="M326.383 56.943C240.557 67.509 174.632 105.89 179.136 142.67C183.64 179.45 256.868 200.7 342.694 190.134C428.52 179.568 494.445 141.187 489.941 104.407C485.437 67.6275 412.21 46.377 326.383 56.943Z" stroke="url(#paint3_linear)" stroke-width="0.5"/>
<path fill-rule="evenodd" clip-rule="evenodd" d="M320.176 56.0962C235.292 72.6229 172.202 115.508 179.261 151.882C186.32 188.256 260.855 204.346 345.739 187.819C430.623 171.292 493.713 128.408 486.654 92.0334C479.595 55.6591 405.061 39.5695 320.176 56.0962Z" stroke="url(#paint4_linear)" stroke-width="0.5"/>
<path fill-rule="evenodd" clip-rule="evenodd" d="M314.032 55.5703C230.503 77.9772 170.556 125.156 180.135 160.948C189.714 196.74 265.193 207.59 348.722 185.183C432.25 162.776 492.198 115.597 482.618 79.8053C473.039 44.0137 397.56 33.1633 314.032 55.5703Z" stroke="url(#paint5_linear)" stroke-width="0.5"/>
<path fill-rule="evenodd" clip-rule="evenodd" d="M307.971 55.36C226.206 83.538 169.692 134.782 181.746 169.816C193.799 204.851 269.854 210.409 351.62 182.231C433.386 154.053 489.899 102.809 477.846 67.7749C465.793 32.7404 389.737 27.182 307.971 55.36Z" stroke="url(#paint6_linear)" stroke-width="0.5"/>
<path fill-rule="evenodd" clip-rule="evenodd" d="M302.018 55.4588C222.413 89.2706 169.609 144.329 184.077 178.436C198.546 212.543 274.807 212.782 354.412 178.97C434.017 145.159 486.82 90.0999 472.352 55.9931C457.884 21.8863 381.622 21.6471 302.018 55.4588Z" stroke="url(#paint7_linear)" stroke-width="0.5"/>
<path fill-rule="evenodd" clip-rule="evenodd" d="M296.191 55.8585C219.135 95.1393 170.299 153.745 187.112 186.758C203.924 219.771 280.02 214.69 357.076 175.409C434.132 136.128 482.969 77.5224 466.156 44.5095C449.343 11.4966 373.247 16.5778 296.191 55.8585Z" stroke="url(#paint8_linear)" stroke-width="0.5"/>
<path fill-rule="evenodd" clip-rule="evenodd" d="M290.513 56.5494C216.382 101.108 171.75 162.975 190.825 194.733C209.901 226.491 285.46 216.114 359.592 171.556C433.724 126.997 478.355 65.1306 459.28 33.3725C440.204 1.61433 364.645 11.991 290.513 56.5494Z" stroke="url(#paint9_linear)" stroke-width="0.5"/>
<path fill-rule="evenodd" clip-rule="evenodd" d="M285.004 57.5205C214.157 107.139 173.948 171.966 195.193 202.315C216.438 232.663 291.093 217.042 361.94 167.423C432.786 117.804 472.995 52.9772 451.75 22.6285C430.505 -7.7202 355.85 7.90147 285.004 57.5205Z" stroke="url(#paint10_linear)" stroke-width="0.5"/>
<path fill-rule="evenodd" clip-rule="evenodd" d="M279.681 58.7592C212.466 113.197 176.874 180.668 200.186 209.459C223.497 238.25 296.884 217.46 364.1 163.022C431.316 108.584 466.907 41.1136 443.595 12.3222C420.284 -16.4692 346.897 4.3214 279.681 58.7592Z" stroke="url(#paint11_linear)" stroke-width="0.5"/>
<path fill-rule="evenodd" clip-rule="evenodd" d="M274.565 60.252C211.307 119.243 180.507 189.029 205.771 216.123C231.036 243.217 302.797 217.359 366.055 158.367C429.312 99.3758 460.112 29.5899 434.848 2.49612C409.584 -24.5977 337.822 1.26052 274.565 60.252Z" stroke="url(#paint12_linear)" stroke-width="0.5"/>
<path fill-rule="evenodd" clip-rule="evenodd" d="M269.671 61.9837C210.68 125.241 184.821 197.003 211.915 222.267C239.009 247.531 308.795 216.731 367.786 153.473C426.778 90.2158 452.636 18.4546 425.542 -6.80955C398.448 -32.0737 328.662 -1.27394 269.671 61.9837Z" stroke="url(#paint13_linear)" stroke-width="0.5"/>
<path fill-rule="evenodd" clip-rule="evenodd" d="M265.016 63.9384C210.578 131.154 189.788 204.541 218.579 227.852C247.371 251.164 314.841 215.573 369.279 148.357C423.717 81.1411 444.507 7.75432 415.716 -15.5572C386.925 -38.8687 319.454 -3.27734 265.016 63.9384Z" stroke="url(#paint14_linear)" stroke-width="0.5"/>
<path fill-rule="evenodd" clip-rule="evenodd" d="M260.615 66.0986C210.996 136.945 195.375 211.6 225.723 232.845C256.072 254.09 320.899 213.881 370.518 143.035C420.137 72.1883 435.758 -2.46667 405.41 -23.7119C375.061 -44.9572 310.234 -4.74766 260.615 66.0986Z" stroke="url(#paint15_linear)" stroke-width="0.5"/>
<path fill-rule="evenodd" clip-rule="evenodd" d="M256.482 68.4463C211.924 142.578 201.547 218.137 233.305 237.213C265.064 256.288 326.93 211.657 371.489 137.525C416.047 63.3932 426.424 -12.1662 394.666 -31.2417C362.908 -50.3172 301.041 -5.68541 256.482 68.4463Z" stroke="url(#paint16_linear)" stroke-width="0.5"/>
<path fill-rule="evenodd" clip-rule="evenodd" d="M252.629 70.9622C213.349 148.018 208.268 224.114 241.281 240.927C274.293 257.74 332.899 208.903 372.18 131.847C411.46 54.791 416.542 -21.3047 383.529 -38.1175C350.516 -54.9304 291.91 -6.09372 252.629 70.9622Z" stroke="url(#paint17_linear)" stroke-width="0.5"/>
<path fill-rule="evenodd" clip-rule="evenodd" d="M249.068 73.6265C215.256 153.231 215.495 229.493 249.602 243.961C283.709 258.429 338.768 205.625 372.579 126.021C406.391 46.4159 406.152 -29.8454 372.045 -44.3136C337.938 -58.7819 282.879 -5.97831 249.068 73.6265Z" stroke="url(#paint18_linear)" stroke-width="0.5"/>
<path fill-rule="evenodd" clip-rule="evenodd" d="M245.807 76.4184C217.629 158.184 223.187 234.239 258.222 246.293C293.256 258.346 344.5 201.833 372.678 120.067C400.856 38.301 395.298 -37.7543 360.263 -49.8075C325.229 -61.8607 273.985 -5.34744 245.807 76.4184Z" stroke="url(#paint19_linear)" stroke-width="0.5"/>
<path fill-rule="evenodd" clip-rule="evenodd" d="M242.855 79.3166C220.448 162.845 231.299 238.324 267.09 247.903C302.882 257.483 350.061 197.535 372.468 114.007C394.875 30.4781 384.025 -45.0007 348.233 -54.5801C312.441 -64.1595 265.262 -4.21189 242.855 79.3166Z" stroke="url(#paint20_linear)" stroke-width="0.5"/>
<path fill-rule="evenodd" clip-rule="evenodd" d="M240.219 82.2993C223.692 167.183 239.782 241.718 276.156 248.777C312.531 255.836 355.415 192.746 371.942 107.862C388.469 22.9777 372.379 -51.5569 336.005 -58.6158C299.631 -65.6747 256.746 -2.58489 240.219 82.2993Z" stroke="url(#paint21_linear)" stroke-width="0.5"/>
<path fill-rule="evenodd" clip-rule="evenodd" d="M237.904 85.3443C227.338 171.171 248.588 244.398 285.368 248.902C322.148 253.406 360.529 187.481 371.095 101.655C381.661 15.8285 360.411 -57.3987 323.631 -61.9028C286.851 -66.4068 248.47 -0.482092 237.904 85.3443Z" stroke="url(#paint22_linear)" stroke-width="0.5"/>
<path fill-rule="evenodd" clip-rule="evenodd" d="M235.913 88.429C231.359 174.779 257.667 246.343 294.673 248.27C331.679 250.197 365.37 181.759 369.924 95.4081C374.478 9.05776 348.17 -62.5054 311.164 -64.4326C274.158 -66.3599 240.467 2.07859 235.913 88.429Z" stroke="url(#paint23_linear)" stroke-width="0.5"/>
<path fill-rule="evenodd" clip-rule="evenodd" d="M234.249 91.5307C235.73 177.984 266.966 247.535 304.018 246.876C341.07 246.217 369.907 175.598 368.426 89.1444C366.946 2.69069 335.709 -66.8597 298.657 -66.2008C261.605 -65.5418 232.768 5.07696 234.249 91.5307Z" stroke="url(#paint24_linear)" stroke-width="0.5"/>
<path fill-rule="evenodd" clip-rule="evenodd" d="M232.912 94.6266C240.419 180.762 276.433 247.961 313.351 244.719C350.268 241.477 374.109 169.022 366.602 82.8865C359.094 -3.24936 323.08 -70.4482 286.163 -67.2062C249.245 -63.9643 225.404 8.49072 232.912 94.6266Z" stroke="url(#paint25_linear)" stroke-width="0.5"/>
<path fill-rule="evenodd" clip-rule="evenodd" d="M231.9 97.6939C245.398 183.092 286.013 247.612 322.616 241.803C359.22 235.994 377.95 162.056 364.451 76.6572C350.953 -8.74118 310.338 -73.261 273.735 -67.4519C237.132 -61.6428 218.401 12.2955 231.9 97.6939Z" stroke="url(#paint26_linear)" stroke-width="0.5"/>
<path fill-rule="evenodd" clip-rule="evenodd" d="M231.211 100.71C250.634 184.955 295.653 246.481 331.763 238.133C367.874 229.785 381.401 154.724 361.978 70.4791C342.555 -13.7657 297.536 -75.2922 261.426 -66.9442C225.315 -58.5962 211.788 16.4651 231.211 100.71Z" stroke="url(#paint27_linear)" stroke-width="0.5"/>
<path fill-rule="evenodd" clip-rule="evenodd" d="M230.841 103.652C256.094 186.333 305.297 244.567 340.739 233.72C376.181 222.874 384.44 147.056 359.187 64.3747C333.933 -18.3061 284.73 -76.5396 249.288 -65.6934C213.846 -54.8472 205.587 20.9715 230.841 103.652Z" stroke="url(#paint28_linear)" stroke-width="0.5"/>
<path fill-rule="evenodd" clip-rule="evenodd" d="M230.783 106.499C261.743 187.213 314.891 241.87 349.492 228.578C384.092 215.287 387.043 139.08 356.082 58.3659C325.122 -22.3481 271.974 -77.0048 237.374 -63.7132C202.773 -50.4216 199.822 25.7851 230.783 106.499Z" stroke="url(#paint29_linear)" stroke-width="0.5"/>
<path fill-rule="evenodd" clip-rule="evenodd" d="M231.03 109.229C267.547 187.583 324.381 238.396 357.971 222.724C391.562 207.052 389.19 130.828 352.673 52.4745C316.156 -25.8796 259.323 -76.6932 225.732 -61.021C192.141 -45.3488 194.513 30.8746 231.03 109.229Z" stroke="url(#paint30_linear)" stroke-width="0.5"/>
<path fill-rule="evenodd" clip-rule="evenodd" d="M231.574 111.82C273.47 187.432 333.712 234.155 366.129 216.179C398.546 198.202 390.862 122.333 348.967 46.7212C307.072 -28.8911 246.829 -75.6141 214.412 -57.6376C181.995 -39.6611 189.679 36.2076 231.574 111.82Z" stroke="url(#paint31_linear)" stroke-width="0.5"/>
<path fill-rule="evenodd" clip-rule="evenodd" d="M232.404 114.253C279.474 186.755 342.831 229.159 373.917 208.966C405.002 188.773 392.045 113.629 344.975 41.1265C297.905 -31.3756 234.548 -73.7804 203.462 -53.5872C172.377 -33.394 185.334 41.7504 232.404 114.253Z" stroke="url(#paint32_linear)" stroke-width="0.5"/>
<path fill-rule="evenodd" clip-rule="evenodd" d="M233.508 116.507C285.523 185.546 351.687 223.426 381.289 201.114C410.892 178.803 392.724 104.749 340.709 35.71C288.694 -33.3288 222.53 -71.2087 192.928 -48.8973C163.325 -26.5858 181.493 47.4682 233.508 116.507Z" stroke="url(#paint33_linear)" stroke-width="0.5"/>
<path fill-rule="evenodd" clip-rule="evenodd" d="M234.873 118.565C291.579 183.804 360.228 216.974 388.203 192.653C416.179 168.332 392.888 95.7294 336.182 30.4903C279.476 -34.7488 210.827 -67.9194 182.852 -43.5983C154.876 -19.2772 178.167 53.3257 234.873 118.565Z" stroke="url(#paint34_linear)" stroke-width="0.5"/>
<path fill-rule="evenodd" clip-rule="evenodd" d="M236.124 120.376C297.241 181.493 367.997 209.827 394.162 183.662C420.327 157.497 391.993 86.7409 330.876 25.6238C269.759 -35.4932 199.003 -63.8273 172.838 -37.6622C146.673 -11.4971 175.007 59.2591 236.124 120.376Z" stroke="url(#paint35_linear)" stroke-width="0.5"/>
</g>
<path d="M56.856 76.2158C58.8047 76.2158 60.252 75.1304 60.5566 73.4546V73.4419H59.4014L59.3887 73.4546C59.103 74.5083 58.1318 75.1621 56.856 75.1621C55.0913 75.1621 53.9868 73.7212 53.9868 71.4297V71.417C53.9868 69.1255 55.0913 67.6782 56.8496 67.6782C58.1128 67.6782 59.0903 68.4209 59.395 69.5952L59.4014 69.6079H60.5503L60.5566 69.5952C60.2837 67.8369 58.7793 66.6245 56.8496 66.6245C54.3613 66.6245 52.8125 68.4653 52.8125 71.417V71.4297C52.8125 74.375 54.3677 76.2158 56.856 76.2158ZM65.127 76.1206C66.7393 76.1206 67.7168 75.2065 67.9517 74.2798L67.9644 74.229H66.8599L66.8345 74.2861C66.6504 74.6987 66.0791 75.1367 65.1523 75.1367C63.9336 75.1367 63.1528 74.3115 63.1211 72.896H68.0469V72.4644C68.0469 70.4204 66.917 69.0366 65.0571 69.0366C63.1973 69.0366 61.9912 70.4839 61.9912 72.5977V72.604C61.9912 74.7495 63.1719 76.1206 65.127 76.1206ZM65.0508 70.0205C66.0601 70.0205 66.8091 70.6616 66.9233 72.0137H63.1401C63.2607 70.7124 64.0352 70.0205 65.0508 70.0205ZM69.7607 76H70.8652V71.7598C70.8652 70.7568 71.6143 70.0903 72.668 70.0903C72.9092 70.0903 73.1187 70.1157 73.3472 70.1538V69.0811C73.2393 69.062 73.0044 69.0366 72.7949 69.0366C71.8682 69.0366 71.2271 69.4556 70.9668 70.1729H70.8652V69.1572H69.7607V76ZM77.5239 76.0508C77.7397 76.0508 77.9492 76.0254 78.165 75.9873V75.0479C77.9619 75.0669 77.854 75.0732 77.6572 75.0732C76.9463 75.0732 76.667 74.7495 76.667 73.9434V70.0713H78.165V69.1572H76.667V67.3862H75.5244V69.1572H74.4453V70.0713H75.5244V74.2227C75.5244 75.5303 76.1147 76.0508 77.5239 76.0508ZM80.3994 67.8369C80.8184 67.8369 81.1611 67.4941 81.1611 67.0752C81.1611 66.6562 80.8184 66.3135 80.3994 66.3135C79.9805 66.3135 79.6377 66.6562 79.6377 67.0752C79.6377 67.4941 79.9805 67.8369 80.3994 67.8369ZM79.8408 76H80.9453V69.1572H79.8408V76ZM83.4844 76H84.5889V70.0713H86.144V69.1572H84.5889V68.4272C84.5889 67.6782 84.9062 67.291 85.6934 67.291C85.8901 67.291 86.0742 67.2974 86.2075 67.3228V66.4404C85.979 66.396 85.7378 66.377 85.4712 66.377C84.1699 66.377 83.4844 67.0308 83.4844 68.3955V69.1572H82.3481V70.0713H83.4844V76ZM88.3213 67.8369C88.7402 67.8369 89.083 67.4941 89.083 67.0752C89.083 66.6562 88.7402 66.3135 88.3213 66.3135C87.9023 66.3135 87.5596 66.6562 87.5596 67.0752C87.5596 67.4941 87.9023 67.8369 88.3213 67.8369ZM87.7627 76H88.8672V69.1572H87.7627V76ZM93.7422 76.1206C95.3545 76.1206 96.332 75.2065 96.5669 74.2798L96.5796 74.229H95.4751L95.4497 74.2861C95.2656 74.6987 94.6943 75.1367 93.7676 75.1367C92.5488 75.1367 91.7681 74.3115 91.7363 72.896H96.6621V72.4644C96.6621 70.4204 95.5322 69.0366 93.6724 69.0366C91.8125 69.0366 90.6064 70.4839 90.6064 72.5977V72.604C90.6064 74.7495 91.7871 76.1206 93.7422 76.1206ZM93.666 70.0205C94.6753 70.0205 95.4243 70.6616 95.5386 72.0137H91.7554C91.876 70.7124 92.6504 70.0205 93.666 70.0205ZM100.902 76.1206C101.854 76.1206 102.616 75.6699 103.035 74.9082H103.137V76H104.241V66.4404H103.137V70.2363H103.035C102.661 69.5063 101.842 69.0366 100.902 69.0366C99.1631 69.0366 98.0332 70.4268 98.0332 72.5723V72.585C98.0332 74.7178 99.1694 76.1206 100.902 76.1206ZM101.156 75.1431C99.9058 75.1431 99.1631 74.1782 99.1631 72.585V72.5723C99.1631 70.979 99.9058 70.0142 101.156 70.0142C102.4 70.0142 103.162 70.9917 103.162 72.5723V72.585C103.162 74.1655 102.4 75.1431 101.156 75.1431ZM113.42 76.1206C115.153 76.1206 116.289 74.7178 116.289 72.585V72.5723C116.289 70.4268 115.159 69.0366 113.42 69.0366C112.48 69.0366 111.662 69.5063 111.287 70.2363H111.186V66.4404H110.081V76H111.186V74.9082H111.287C111.706 75.6699 112.468 76.1206 113.42 76.1206ZM113.166 75.1431C111.922 75.1431 111.16 74.1655 111.16 72.585V72.5723C111.16 70.9917 111.922 70.0142 113.166 70.0142C114.417 70.0142 115.159 70.979 115.159 72.5723V72.585C115.159 74.1782 114.417 75.1431 113.166 75.1431ZM118.333 78.3994C119.545 78.3994 120.11 77.9551 120.675 76.4189L123.348 69.1572H122.186L120.313 74.7876H120.212L118.333 69.1572H117.152L119.685 76.0063L119.558 76.4126C119.311 77.1997 118.93 77.4854 118.301 77.4854C118.149 77.4854 117.978 77.479 117.844 77.4536V78.3613C117.997 78.3867 118.187 78.3994 118.333 78.3994ZM130.565 76.2158C132.26 76.2158 133.263 75.1875 133.263 73.4546V66.8403H132.12V73.4419C132.12 74.5591 131.574 75.1621 130.559 75.1621C129.651 75.1621 129.2 74.5845 129.13 73.8926L129.124 73.8291H127.981L127.988 73.918C128.083 75.2319 128.978 76.2158 130.565 76.2158ZM138.271 76.1206C140.22 76.1206 141.426 74.7749 141.426 72.585V72.5723C141.426 70.376 140.22 69.0366 138.271 69.0366C136.322 69.0366 135.116 70.376 135.116 72.5723V72.585C135.116 74.7749 136.322 76.1206 138.271 76.1206ZM138.271 75.1431C136.976 75.1431 136.246 74.1973 136.246 72.585V72.5723C136.246 70.9536 136.976 70.0142 138.271 70.0142C139.566 70.0142 140.296 70.9536 140.296 72.5723V72.585C140.296 74.1973 139.566 75.1431 138.271 75.1431ZM143.203 76H144.308V71.9502C144.308 70.7505 145 70.0142 146.091 70.0142C147.183 70.0142 147.691 70.6045 147.691 71.8359V76H148.795V71.5693C148.795 69.9443 147.938 69.0366 146.402 69.0366C145.393 69.0366 144.752 69.4619 144.409 70.1855H144.308V66.4404H143.203V76ZM150.795 76H151.899V71.9502C151.899 70.7505 152.591 70.0142 153.683 70.0142C154.775 70.0142 155.283 70.6045 155.283 71.8359V76H156.387V71.5693C156.387 69.9443 155.53 69.0366 153.994 69.0366C152.985 69.0366 152.344 69.4619 152.001 70.1855H151.899V69.1572H150.795V76ZM162.183 76H165.325C168.048 76 169.647 74.3052 169.647 71.4233V71.4106C169.647 68.5352 168.042 66.8403 165.325 66.8403H162.183V76ZM163.325 74.9717V67.8687H165.249C167.28 67.8687 168.479 69.189 168.479 71.4233V71.436C168.479 73.6641 167.292 74.9717 165.249 74.9717H163.325ZM174.3 76.1206C176.249 76.1206 177.455 74.7749 177.455 72.585V72.5723C177.455 70.376 176.249 69.0366 174.3 69.0366C172.352 69.0366 171.146 70.376 171.146 72.5723V72.585C171.146 74.7749 172.352 76.1206 174.3 76.1206ZM174.3 75.1431C173.005 75.1431 172.275 74.1973 172.275 72.585V72.5723C172.275 70.9536 173.005 70.0142 174.3 70.0142C175.595 70.0142 176.325 70.9536 176.325 72.5723V72.585C176.325 74.1973 175.595 75.1431 174.3 75.1431ZM181.962 76.1206C183.574 76.1206 184.552 75.2065 184.787 74.2798L184.799 74.229H183.695L183.669 74.2861C183.485 74.6987 182.914 75.1367 181.987 75.1367C180.769 75.1367 179.988 74.3115 179.956 72.896H184.882V72.4644C184.882 70.4204 183.752 69.0366 181.892 69.0366C180.032 69.0366 178.826 70.4839 178.826 72.5977V72.604C178.826 74.7495 180.007 76.1206 181.962 76.1206ZM181.886 70.0205C182.895 70.0205 183.644 70.6616 183.758 72.0137H179.975C180.096 70.7124 180.87 70.0205 181.886 70.0205Z" fill="white" fill-opacity="0.9"/>
<path d="M59.4229 53.3975C63.29 53.3975 65.6748 51.4531 65.6748 48.3809V48.3701C65.6748 45.9531 64.2461 44.6426 60.9697 43.9658L59.3262 43.6328C57.5 43.2568 56.748 42.6553 56.748 41.6455V41.6348C56.748 40.4746 57.8115 39.7441 59.4121 39.7334C61.0449 39.7334 62.1191 40.5068 62.3018 41.6133L62.3232 41.7422H65.374L65.3633 41.6025C65.1592 39.0137 63.0322 37.1016 59.4121 37.1016C55.9746 37.1016 53.5039 39.0029 53.5039 41.8818V41.8926C53.5039 44.2451 54.8896 45.749 58.1123 46.4043L59.7451 46.7373C61.668 47.1348 62.4307 47.7041 62.4307 48.7246V48.7354C62.4307 49.9277 61.2383 50.7549 59.5088 50.7549C57.6934 50.7549 56.4365 49.9707 56.3184 48.8105L56.3076 48.7031H53.1816L53.1924 48.875C53.375 51.625 55.7168 53.3975 59.4229 53.3975ZM70.6807 53H73.9678L76.0625 44.75H76.2559L78.3721 53H81.7021L84.8496 41.1729H81.7451L79.9834 49.7344H79.79L77.7061 41.1729H74.7197L72.6465 49.7344H72.4531L70.6914 41.1729H67.5225L70.6807 53ZM88.6846 39.3574C89.6514 39.3574 90.4463 38.584 90.4463 37.6172C90.4463 36.6396 89.6514 35.8662 88.6846 35.8662C87.7178 35.8662 86.9121 36.6396 86.9121 37.6172C86.9121 38.584 87.7178 39.3574 88.6846 39.3574ZM87.1055 53H90.2422V41.1729H87.1055V53ZM94.3135 53H97.4502V43.5361H99.8887V41.1729H97.3857V40.2812C97.3857 39.25 97.8369 38.6807 99.0508 38.6807C99.459 38.6807 99.792 38.7129 99.9854 38.7451V36.6504C99.5342 36.5859 99.0078 36.5322 98.374 36.5322C95.5166 36.5322 94.3135 37.7139 94.3135 40.0664V41.1729H92.4014V43.5361H94.3135V53ZM107.397 53.043C107.999 53.043 108.579 52.9785 108.966 52.9033V50.5723C108.665 50.6045 108.45 50.626 108.042 50.626C106.979 50.626 106.527 50.1533 106.527 49.0898V43.5361H108.966V41.1729H106.527V38.3477H103.358V41.1729H101.532V43.5361H103.358V49.8096C103.358 52.1084 104.519 53.043 107.397 53.043ZM124.048 53.3975C128.044 53.3975 130.536 51.0879 130.536 47.6504V37.499H127.292V47.3604C127.292 49.3691 126.132 50.6475 124.048 50.6475C121.964 50.6475 120.793 49.3691 120.793 47.3604V37.499H117.549V47.6504C117.549 51.0986 120.073 53.3975 124.048 53.3975ZM134.296 53H137.54V37.499H134.296V53Z" fill="white"/>
<mask id="mask1" mask-type="alpha" maskUnits="userSpaceOnUse" x="52" y="134" width="32" height="14">
<rect x="52" y="134.726" width="32" height="13.274" fill="#C4C4C4"/>
</mask>
<g mask="url(#mask1)">
<path d="M82.7935 137.426L70.0756 130.12C68.8736 129.424 66.9349 129.424 65.7329 130.12L53.0926 137.426C51.8906 138.122 51.9294 139.243 53.0926 139.939L65.8105 147.245C67.0125 147.941 68.9511 147.941 70.1531 147.245L82.7935 139.939C84.0342 139.243 83.9955 138.122 82.7935 137.426Z" stroke="white" stroke-width="0.6"/>
</g>
<mask id="mask2" mask-type="alpha" maskUnits="userSpaceOnUse" x="55" y="134" width="3" height="2">
<rect x="55.3167" y="134.493" width="2.56934" height="1.39726" fill="#C4C4C4"/>
</mask>
<g mask="url(#mask2)">
<path d="M82.7935 137.426L70.0756 130.12C68.8737 129.424 66.935 129.424 65.733 130.12L53.0926 137.426C51.8907 138.122 51.9294 139.243 53.0926 139.939L65.8105 147.245C67.0125 147.941 68.9512 147.941 70.1532 147.245L82.7935 139.939C84.0343 139.243 83.9955 138.122 82.7935 137.426Z" stroke="white" stroke-width="0.6"/>
</g>
<mask id="mask3" mask-type="alpha" maskUnits="userSpaceOnUse" x="77" y="134" width="2" height="1">
<rect x="77.927" y="134.493" width="0.934306" height="0.465753" fill="#C4C4C4"/>
</mask>
<g mask="url(#mask3)">
<path d="M82.7935 137.426L70.0756 130.12C68.8737 129.424 66.935 129.424 65.733 130.12L53.0926 137.426C51.8907 138.122 51.9294 139.243 53.0926 139.939L65.8105 147.245C67.0125 147.941 68.9512 147.941 70.1532 147.245L82.7935 139.939C84.0343 139.243 83.9955 138.122 82.7935 137.426Z" stroke="white" stroke-width="0.6"/>
</g>
<path d="M80.7161 126.757C80.7161 133.793 74.9388 139.514 67.9207 139.514C60.9026 139.514 55.1252 133.754 55.1252 126.757C55.1252 119.76 60.9026 114 67.9207 114C74.9388 114 80.7161 119.721 80.7161 126.757Z" stroke="white" stroke-width="0.6"/>
<path d="M70.9057 126.95C69.5486 126.95 69.3547 127.762 69.3547 128.38C69.3547 128.883 69.4323 129.424 69.5098 129.926C69.5874 130.429 69.6649 130.97 69.6649 131.511C69.6649 133.444 68.4629 134.14 66.8731 134.14H66.4854V133.096H66.7956C67.8813 133.096 68.3466 132.517 68.3466 131.434C68.3466 130.97 68.2691 130.545 68.2303 130.042C68.1527 129.579 68.0752 129.115 68.0752 128.573C68.0752 127.336 68.618 126.679 69.471 126.486V126.447C68.618 126.215 68.0752 125.597 68.0752 124.36C68.0752 123.857 68.1527 123.393 68.2303 122.891C68.2691 122.427 68.3466 121.963 68.3466 121.538C68.3466 120.494 67.9589 119.914 66.8344 119.875H66.4854V118.832H66.8731C68.5017 118.832 69.7037 119.566 69.7037 121.344C69.7037 121.886 69.6261 122.388 69.5486 122.929C69.471 123.471 69.3935 124.012 69.3935 124.553C69.3935 125.21 69.5874 125.983 70.9444 125.983V126.95H70.9057Z" stroke="white" stroke-width="0.6"/>
</svg>
