<svg width="12" height="18" viewBox="0 0 12 18" fill="none" xmlns="http://www.w3.org/2000/svg">
<path d="M2.88 17.4547C4.46976 17.4547 5.75999 16.1514 5.75999 14.5456V11.6365H2.88C1.29024 11.6365 0 12.9397 0 14.5456C0 16.1514 1.29024 17.4547 2.88 17.4547Z" fill="#0ACF83"/>
<path d="M0 8.7272C0 7.12139 1.29024 5.81812 2.88 5.81812H5.75999V11.6363H2.88C1.29024 11.6363 0 10.333 0 8.7272Z" fill="#A259FF"/>
<path d="M0 2.90909C0 1.30327 1.29024 0 2.88 0H5.75999V5.81818H2.88C1.29024 5.81818 0 4.5149 0 2.90909Z" fill="#F24E1E"/>
<path d="M5.75977 0H8.63976C10.2295 0 11.5198 1.30327 11.5198 2.90909C11.5198 4.5149 10.2295 5.81818 8.63976 5.81818H5.75977V0Z" fill="#FF7262"/>
<path d="M11.5198 8.7272C11.5198 10.333 10.2295 11.6363 8.63976 11.6363C7.05 11.6363 5.75977 10.333 5.75977 8.7272C5.75977 7.12139 7.05 5.81812 8.63976 5.81812C10.2295 5.81812 11.5198 7.12139 11.5198 8.7272Z" fill="#1ABCFE"/>
</svg>
