<svg width="32" height="40" viewBox="0 0 32 40" fill="none" xmlns="http://www.w3.org/2000/svg">
<mask id="mask0" mask-type="alpha" maskUnits="userSpaceOnUse" x="0" y="0" width="32" height="40">
<path fill-rule="evenodd" clip-rule="evenodd" d="M31.0096 18.1736L20.673 28.779L31.0096 39.3843H19.198L8.85777 28.779L19.198 18.1736H31.0096ZM19.198 0L0 19.6902L5.90764 25.7494L31.0096 0H19.198Z" fill="white"/>
</mask>
<defs>
<linearGradient id="paint0_linear" x1="23.6854" y1="38.3624" x2="24.8927" y2="32.6673" gradientUnits="userSpaceOnUse">
<stop stop-color="#1A237E" stop-opacity="0.4"/>
<stop offset="1" stop-color="#1A237E" stop-opacity="0.01"/>
</linearGradient>
<radialGradient id="paint1_radial" cx="0" cy="0" r="1" gradientUnits="userSpaceOnUse" gradientTransform="translate(0.871165 2.68432) scale(46.9773 59.6643)">
<stop stop-color="white" stop-opacity="0.1"/>
<stop offset="1" stop-color="white" stop-opacity="0.01"/>
</radialGradient>
</defs>
<g mask="url(#mask0)">
<path d="M8.86145 28.779L14.7654 34.8381L31.0096 18.1736H19.198L8.86145 28.779Z" fill="#39CEFD"/>
</g>
<mask id="mask1" mask-type="alpha" maskUnits="userSpaceOnUse" x="0" y="0" width="32" height="40">
<path fill-rule="evenodd" clip-rule="evenodd" d="M31.0096 18.1736L20.673 28.779L31.0096 39.3843H19.198L8.85777 28.779L19.198 18.1736H31.0096ZM19.198 0L0 19.6902L5.90764 25.7494L31.0096 0H19.198Z" fill="white"/>
</mask>
<g mask="url(#mask1)">
<path d="M19.198 0H31.0096L5.90764 25.7494L0 19.6902L19.198 0Z" fill="#39CEFD"/>
</g>
<mask id="mask2" mask-type="alpha" maskUnits="userSpaceOnUse" x="0" y="0" width="32" height="40">
<path fill-rule="evenodd" clip-rule="evenodd" d="M31.0096 18.1736L20.673 28.779L31.0096 39.3843H19.198L8.85777 28.779L19.198 18.1736H31.0096ZM19.198 0L0 19.6902L5.90764 25.7494L31.0096 0H19.198Z" fill="white"/>
</mask>
<g mask="url(#mask2)">
<path d="M14.7654 34.838L19.198 39.3805H31.0096L20.673 28.7789L14.7654 34.838Z" fill="#03569B"/>
</g>
<mask id="mask3" mask-type="alpha" maskUnits="userSpaceOnUse" x="0" y="0" width="32" height="40">
<path fill-rule="evenodd" clip-rule="evenodd" d="M31.0096 18.1736L20.673 28.779L31.0096 39.3843H19.198L8.85777 28.779L19.198 18.1736H31.0096ZM19.198 0L0 19.6902L5.90764 25.7494L31.0096 0H19.198Z" fill="white"/>
</mask>
<g mask="url(#mask3)">
<path d="M23.527 31.7251L20.673 28.7789L14.7654 34.838L23.527 31.7251Z" fill="url(#paint0_linear)"/>
</g>
<mask id="mask4" mask-type="alpha" maskUnits="userSpaceOnUse" x="0" y="0" width="32" height="40">
<path fill-rule="evenodd" clip-rule="evenodd" d="M31.0096 18.1736L20.673 28.779L31.0096 39.3843H19.198L8.85777 28.779L19.198 18.1736H31.0096ZM19.198 0L0 19.6902L5.90764 25.7494L31.0096 0H19.198Z" fill="white"/>
</mask>
<g mask="url(#mask4)">
<path d="M8.86078 28.7769L14.7686 22.7175L20.6767 28.7769L14.7686 34.8362L8.86078 28.7769Z" fill="#16B9FD"/>
<path fill-rule="evenodd" clip-rule="evenodd" d="M0 19.6902L19.198 0H31.0096L5.90764 25.7494L0 19.6902ZM20.673 28.779L31.0096 18.1736H19.198L8.85777 28.779L19.198 39.3843H31.0096L20.673 28.779Z" fill="url(#paint1_radial)"/>
</g>
</svg>
