<svg width="36" height="33" viewBox="0 0 36 33" fill="none" xmlns="http://www.w3.org/2000/svg">
<path d="M22.1802 0C38.0045 11.0449 32.886 23.2251 32.886 23.2251C32.886 23.2251 37.3858 28.4397 35.5671 33C35.5671 33 33.7109 29.8058 30.5986 29.8058C27.5987 29.8058 25.8363 33 19.7991 33C6.35595 33 0 21.4741 0 21.4741C12.1119 29.6519 20.3803 23.8601 20.3803 23.8601C14.9243 20.6082 3.3186 5.06064 3.3186 5.06064C13.4244 13.8927 17.7929 16.221 17.7929 16.221C15.1868 14.0082 7.87463 3.19417 7.87463 3.19417C13.7244 9.27464 25.3488 17.7603 25.3488 17.7603C28.6487 8.37026 22.1802 0 22.1802 0Z" fill="black"/>
</svg>
