<svg width="18" height="16" viewBox="0 0 18 16" fill="none" xmlns="http://www.w3.org/2000/svg">
<path d="M16.6621 0.527344C16.0078 0.527344 15.5684 0.976562 15.5684 1.64062C15.5684 2.00195 15.6074 2.40234 15.6074 2.95898C15.6074 5.85938 14.5723 7.04102 11.6914 7.04102H5.91016L3.73242 7.16797L6.26172 4.87305L8.3418 2.7832C8.54688 2.57812 8.68359 2.30469 8.68359 1.98242C8.68359 1.37695 8.22461 0.917969 7.58008 0.917969C7.29688 0.917969 7.02344 1.03516 6.7793 1.25977L0.714844 7.32422C0.490234 7.54883 0.353516 7.85156 0.353516 8.16406C0.353516 8.4668 0.490234 8.76953 0.714844 8.99414L6.76953 15.0391C7.02344 15.293 7.29688 15.4004 7.58008 15.4004C8.22461 15.4004 8.68359 14.9512 8.68359 14.3359C8.68359 14.0137 8.54688 13.7402 8.3418 13.5352L6.26172 11.4453L3.74219 9.16016L5.91016 9.27734H11.8477C16.0566 9.27734 17.8633 7.27539 17.8633 3.00781C17.8633 2.4707 17.8438 1.98242 17.7656 1.5625C17.6777 1.07422 17.3652 0.527344 16.6621 0.527344Z" fill="black" fill-opacity="0.8"/>
</svg>
