<svg width="16" height="13" viewBox="0 0 16 13" fill="none" xmlns="http://www.w3.org/2000/svg">
<path fill-rule="evenodd" clip-rule="evenodd" d="M0 0.75C0 0.335786 0.335786 0 0.75 0H7.25C7.66421 0 8 0.335786 8 0.75C8 1.16421 7.66421 1.5 7.25 1.5H0.75C0.335786 1.5 0 1.16421 0 0.75ZM0 6.25C0 5.83579 0.335786 5.5 0.75 5.5H15.25C15.6642 5.5 16 5.83579 16 6.25C16 6.66421 15.6642 7 15.25 7H0.75C0.335786 7 0 6.66421 0 6.25ZM8.75 11C8.33579 11 8 11.3358 8 11.75C8 12.1642 8.33579 12.5 8.75 12.5H15.25C15.6642 12.5 16 12.1642 16 11.75C16 11.3358 15.6642 11 15.25 11H8.75Z" fill="white"/>
</svg>
